<svg width="256" height="145" viewBox="0 0 256 145" fill="none" xmlns="http://www.w3.org/2000/svg">
<path fill-rule="evenodd" clip-rule="evenodd" d="M147.488 45.7324H170.353V69.1071H181.915C187.254 69.1071 192.746 68.156 197.802 66.4427C200.287 65.6003 203.075 64.4279 205.526 62.9535C202.298 58.7391 200.65 53.4178 200.165 48.1725C199.506 41.0382 200.945 31.752 205.774 26.1682L208.178 23.3881L211.042 25.6905C218.253 31.4843 224.318 39.5799 225.387 48.8087C234.07 46.2546 244.265 46.8587 251.918 51.2761L255.058 53.0879L253.406 56.3136C246.933 68.9465 233.401 72.8599 220.171 72.1674C200.373 121.476 157.273 144.82 105.013 144.82C78.0146 144.82 53.2436 134.727 39.1379 110.773L38.9066 110.382L36.8516 106.201C32.0835 95.6567 30.4998 84.1056 31.5741 72.5642L31.8966 69.1071H51.4495V45.7324H74.3149V22.8659H120.048V0H147.488V45.7324Z" fill="#364548"/>
<path fill-rule="evenodd" clip-rule="evenodd" d="M221.57 54.3796C223.103 42.4644 214.186 33.1048 208.656 28.6613C202.283 36.029 201.293 55.3388 211.291 63.4687C205.712 68.4248 193.954 72.9171 181.915 72.9171H35.3703C34.1995 85.4841 36.4061 97.0566 41.4446 106.962L43.1119 110.011C44.1675 111.803 45.3205 113.532 46.5668 115.196H46.5673C52.5919 115.583 58.1468 115.717 63.2288 115.604H63.2309C73.2181 115.383 81.3667 114.205 87.5429 112.065C88.4624 111.745 89.4645 112.233 89.7826 113.151C90.1002 114.07 89.6139 115.072 88.6954 115.391C87.8744 115.676 87.018 115.942 86.1338 116.195C86.1327 116.195 86.1316 116.195 86.1306 116.196C81.2676 117.584 76.0534 118.518 69.3251 118.933C69.7241 118.94 68.9089 118.993 68.9068 118.994C68.6781 119.008 68.39 119.041 68.1602 119.053C65.5124 119.202 62.6541 119.233 59.732 119.233C56.5363 119.233 53.3888 119.172 49.8702 118.994L49.7802 119.053C61.9905 132.777 81.0823 141.008 105.014 141.008C155.662 141.008 198.622 118.556 217.645 68.1506C231.142 69.5356 244.113 66.094 250.013 54.5762C240.615 49.1525 228.529 50.8818 221.57 54.3796Z" fill="#22A0C8"/>
<path fill-rule="evenodd" clip-rule="evenodd" d="M221.57 54.3796C223.103 42.4644 214.186 33.1048 208.656 28.6613C202.283 36.029 201.293 55.3388 211.291 63.4687C205.711 68.4248 193.954 72.9171 181.915 72.9171H44.048C43.4498 92.1632 50.5921 106.772 63.2287 115.604H63.2309C73.2181 115.383 81.3667 114.205 87.5428 112.065C88.4624 111.745 89.4644 112.233 89.7826 113.151C90.1001 114.07 89.6139 115.072 88.6954 115.391C87.8743 115.676 87.018 115.942 86.1338 116.195C86.1327 116.195 86.1316 116.195 86.1305 116.196C81.2676 117.584 75.6051 118.638 68.8768 119.053C68.8752 119.053 68.714 118.898 68.7118 118.898C85.9484 127.74 110.942 127.708 139.597 116.701C171.728 104.357 201.626 80.8408 222.487 53.9437C222.173 54.0856 221.866 54.2313 221.57 54.3796Z" fill="#37B1D9"/>
<path fill-rule="evenodd" clip-rule="evenodd" d="M35.6445 88.1862C36.5555 94.9177 38.5243 101.221 41.4447 106.963L43.1119 110.011C44.1675 111.803 45.3206 113.532 46.5674 115.196C52.593 115.583 58.1484 115.717 63.2309 115.604C73.2182 115.383 81.3668 114.205 87.5429 112.065C88.4625 111.745 89.4645 112.233 89.7826 113.152C90.1002 114.07 89.6139 115.073 88.6954 115.391C87.8744 115.676 87.0181 115.942 86.1338 116.195C86.1328 116.195 86.1317 116.195 86.1306 116.196C81.2677 117.584 75.6352 118.578 68.9069 118.994C68.676 119.008 68.2733 119.011 68.0403 119.023C65.3935 119.172 62.5647 119.263 59.6421 119.263C56.4469 119.263 53.1795 119.202 49.6613 119.023C61.8711 132.747 81.0824 141.008 105.014 141.008C148.373 141.008 186.098 124.55 207.993 88.1862H35.6445Z" fill="#1B81A5"/>
<path fill-rule="evenodd" clip-rule="evenodd" d="M45.3672 88.1862C47.9593 100.006 54.1885 109.285 63.231 115.604C73.2182 115.383 81.3668 114.205 87.5429 112.065C88.4625 111.745 89.4645 112.233 89.7827 113.152C90.1002 114.07 89.614 115.073 88.6955 115.391C87.8744 115.676 87.0181 115.942 86.1339 116.195C86.1328 116.195 86.1317 116.195 86.1306 116.196C81.2677 117.584 75.5157 118.578 68.7874 118.994C86.023 127.834 110.944 127.707 139.597 116.701C156.931 110.041 173.614 100.127 188.582 88.1862H45.3672Z" fill="#1D91B4"/>
<path fill-rule="evenodd" clip-rule="evenodd" d="M55.2607 49.543H75.0777V69.361H55.2607V49.543ZM56.9114 51.1947H58.4752V67.7104H56.9114V51.1947ZM59.8516 51.1947H61.4781V67.7104H59.8516V51.1947ZM62.8534 51.1947H64.48V67.7104H62.8534V51.1947ZM65.8569 51.1947H67.4834V67.7104H65.8569V51.1947ZM68.8598 51.1947H70.4863V67.7104H68.8598V51.1947ZM71.8622 51.1947H73.4271V67.7104H71.8622V51.1947Z" fill="#23A3C2"/>
<path fill-rule="evenodd" clip-rule="evenodd" d="M78.1255 26.677H97.9446V46.494H78.1255V26.677ZM79.7782 28.3287H81.341V44.8428H79.7782V28.3287ZM82.7185 28.3287H84.3439V44.8428H82.7185V28.3287ZM85.7198 28.3287H87.3463V44.8428H85.7198V28.3287ZM88.7227 28.3287H90.3492V44.8428H88.7227V28.3287ZM91.7262 28.3287H93.3527V44.8428H91.7262V28.3287ZM94.728 28.3287H96.294V44.8428H94.728V28.3287Z" fill="#23A3C2"/>
<path fill-rule="evenodd" clip-rule="evenodd" d="M78.1255 49.543H97.9446V69.361H78.1255V49.543ZM79.7782 51.1947H81.341V67.7104H79.7782V51.1947ZM82.7185 51.1947H84.3439V67.7104H82.7185V51.1947ZM85.7198 51.1947H87.3463V67.7104H85.7198V51.1947ZM88.7227 51.1947H90.3492V67.7104H88.7227V51.1947ZM91.7262 51.1947H93.3527V67.7104H91.7262V51.1947ZM94.728 51.1947H96.294V67.7104H94.728V51.1947Z" fill="#34BBDE"/>
<path fill-rule="evenodd" clip-rule="evenodd" d="M100.992 49.543H120.81V69.361H100.992V49.543ZM102.644 51.1947H104.207V67.7104H102.644V51.1947ZM105.584 51.1947H107.21V67.7104H105.584V51.1947ZM108.587 51.1947H110.213V67.7104H108.587V51.1947ZM111.59 51.1947H113.216V67.7104H111.59V51.1947ZM114.592 51.1947H116.22V67.7104H114.592V51.1947ZM117.595 51.1947H119.159V67.7104H117.595V51.1947Z" fill="#23A3C2"/>
<path fill-rule="evenodd" clip-rule="evenodd" d="M100.992 26.677H120.81V46.494H100.992V26.677ZM102.644 28.3287H104.207V44.8428H102.644V28.3287ZM105.584 28.3287H107.21V44.8428H105.584V28.3287ZM108.587 28.3287H110.213V44.8428H108.587V28.3287ZM111.59 28.3287H113.216V44.8428H111.59V28.3287ZM114.592 28.3287H116.22V44.8428H114.592V28.3287ZM117.595 28.3287H119.159V44.8428H117.595V28.3287Z" fill="#34BBDE"/>
<path fill-rule="evenodd" clip-rule="evenodd" d="M123.859 49.543H143.677V69.361H123.859V49.543ZM125.511 51.1947H127.074V67.7104H125.511V51.1947ZM128.451 51.1947H130.078V67.7104H128.451V51.1947ZM131.453 51.1947H133.079V67.7104H131.453V51.1947ZM134.456 51.1947H136.083V67.7104H134.456V51.1947ZM137.459 51.1947H139.086V67.7104H137.459V51.1947ZM140.462 51.1947H142.026V67.7104H140.462V51.1947Z" fill="#34BBDE"/>
<path fill-rule="evenodd" clip-rule="evenodd" d="M123.859 26.677H143.677V46.494H123.859V26.677ZM125.511 28.3287H127.074V44.8428H125.511V28.3287ZM128.451 28.3287H130.078V44.8428H128.451V28.3287ZM131.453 28.3287H133.079V44.8428H131.453V28.3287ZM134.456 28.3287H136.083V44.8428H134.456V28.3287ZM137.459 28.3287H139.086V44.8428H137.459V28.3287ZM140.462 28.3287H142.026V44.8428H140.462V28.3287Z" fill="#23A3C2"/>
<path fill-rule="evenodd" clip-rule="evenodd" d="M123.859 3.81055H143.677V23.6286H123.859V3.81055ZM125.511 5.46116H127.074V21.9769H125.511V5.46116ZM128.451 5.46116H130.078V21.9769H128.451V5.46116ZM131.453 5.46116H133.079V21.9769H131.453V5.46116ZM134.456 5.46116H136.083V21.9769H134.456V5.46116ZM137.459 5.46116H139.086V21.9769H137.459V5.46116ZM140.462 5.46116H142.026V21.9769H140.462V5.46116Z" fill="#34BBDE"/>
<path fill-rule="evenodd" clip-rule="evenodd" d="M146.725 49.543H166.543V69.361H146.725V49.543ZM148.375 51.1947H149.94V67.7104H148.375V51.1947ZM151.316 51.1947H152.942V67.7104H151.316V51.1947ZM154.319 51.1947H155.946V67.7104H154.319V51.1947ZM157.321 51.1947H158.948V67.7104H157.321V51.1947ZM160.325 51.1947H161.951V67.7104H160.325V51.1947ZM163.327 51.1947H164.891V67.7104H163.327V51.1947Z" fill="#23A3C2"/>
<path fill-rule="evenodd" clip-rule="evenodd" d="M96.7037 101.492C99.7226 101.492 102.17 103.94 102.17 106.959C102.17 109.978 99.7226 112.426 96.7037 112.426C93.6842 112.426 91.2361 109.978 91.2361 106.959C91.2361 103.94 93.6842 101.492 96.7037 101.492Z" fill="#D3ECEC"/>
<path fill-rule="evenodd" clip-rule="evenodd" d="M96.7037 103.043C97.2039 103.043 97.6811 103.137 98.1213 103.308C97.6441 103.584 97.3212 104.1 97.3212 104.692C97.3212 105.574 98.0367 106.289 98.9193 106.289C99.5239 106.289 100.049 105.953 100.321 105.457C100.513 105.919 100.619 106.427 100.619 106.959C100.619 109.121 98.8663 110.874 96.7037 110.874C94.5416 110.874 92.7876 109.121 92.7876 106.959C92.7876 104.796 94.5416 103.043 96.7037 103.043Z" fill="#364548"/>
<path fill-rule="evenodd" clip-rule="evenodd" d="M0 90.1624H254.327C248.79 88.7576 236.806 86.8601 238.783 79.6027C228.713 91.2544 204.43 87.777 198.301 82.0314C191.477 91.9298 151.747 88.1674 148.976 80.4564C140.42 90.4971 113.909 90.4971 105.353 80.4564C102.58 88.1674 62.8512 91.9298 56.026 82.0314C49.8975 87.777 25.6161 91.2544 15.5458 79.6027C17.5221 86.8601 5.53881 88.7576 0 90.1624Z" fill="#364548"/>
<path fill-rule="evenodd" clip-rule="evenodd" d="M111.237 140.89C97.6979 134.465 90.2658 125.731 86.1307 116.196C81.1018 117.631 75.0558 118.549 68.0313 118.943C65.3851 119.091 62.6018 119.167 59.6802 119.167C56.3126 119.167 52.764 119.068 49.0386 118.87C61.4551 131.279 76.7305 140.834 105.014 141.008C107.102 141.008 109.175 140.968 111.237 140.89Z" fill="#BDD9D7"/>
<path fill-rule="evenodd" clip-rule="evenodd" d="M91.1602 124.994C89.2868 122.451 87.4696 119.255 86.1339 116.195C81.1039 117.631 75.0568 118.549 68.0312 118.943C72.8567 121.563 79.7585 123.99 91.1602 124.994Z" fill="#D3ECEC"/>
</svg>
