<?xml version="1.0" encoding="UTF-8"?>
<svg id="Layer_2" data-name="Layer 2" xmlns="http://www.w3.org/2000/svg" width="683.68" height="176.64" viewBox="0 0 683.68 176.64">
  <defs>
    <style>
      .cls-1 {
        fill: #fff;
      }
    </style>
  </defs>
  <g id="Layer_1-2" data-name="Layer 1">
    <g>
      <g>
        <path class="cls-1" d="M21.33,99.81v23.33c0,.74-2.21,2.73-4.41,2.73H4.41c-2.31,0-4.41-2-4.41-2.73V51.9c0-2,2.84-2.84,4.41-2.84H61.78c14.39,0,27,11.24,27,25.95v.42c-.53,14.5-13.13,24.38-27.42,24.38H21.33Zm0-17.76H61.57c3.15,0,5.88-3.89,5.88-6.83s-2.31-8.41-5.67-8.41H21.33v15.24Z"/>
        <path class="cls-1" d="M264.2,116.72l-5.57,10.82c-.42,.84-2.52,2-4.2,2h-14.08c-2.42,0-4.41-1.89-4.41-2.73,0-.42,.1-.74,.21-.95l36.56-71.24c.21-.32,1.37-1.89,4.2-1.89h15.34c3.15,0,4.1,1.58,4.2,1.89l36.67,71.24c.1,.21,.21,.52,.21,.84s-.1,.74-.31,1.05c-.63,1.26-2.42,1.79-3.99,1.79h-14.08c-2.1,0-3.68-1.05-4.2-2l-5.67-10.82h-40.87Zm20.38-39.93c-1.37,2.73-3.26,6.3-5.04,9.67-1.79,3.57-3.68,7.14-4.94,9.88-.63,.95-1.05,1.89-1.47,2.63h22.8l-11.35-22.17Z"/>
        <path class="cls-1" d="M361.26,83.42v43.08c0,2.21-3.05,2.94-4.73,2.94h-11.98c-2.73,0-3.89-1.37-4.1-1.58-.31-.42-.53-.95-.53-1.37V55.78c0-.42,.21-.95,.53-1.37,.21-.21,1.37-1.58,4.1-1.58h10.3c2.21,0,2.94,.42,3.78,1.26l46.86,44.34-.1-42.76c0-.42,.21-.84,.53-1.37,.21-.21,1.37-1.58,4.1-1.58h12.08c2.73,0,3.89,1.26,4.1,1.58,.42,.53,.53,.95,.53,1.37l.1,70.71c0,.42-.1,.95-.53,1.37-.31,.42-1.47,1.68-4.2,1.68h-9.77c-2.21,0-2.94-.42-3.89-1.26l-47.18-44.76Z"/>
        <path class="cls-1" d="M435.83,91.09c0-12.92,6.72-28.37,29.1-36.25,6.09-2.1,13.45-3.78,21.12-3.78,23.22,0,50.33,13.87,50.33,40.03,0,5.36-1.16,10.72-3.68,15.97-5.67,11.45-20.59,24.06-46.65,24.06-22.17,0-50.22-15.55-50.22-40.03Zm21.33,0c0,14.5,16.18,22.28,28.89,22.28s22.59-6.41,26.48-13.45c1.68-2.84,2.52-5.88,2.52-8.83,0-14.39-16.5-22.17-29-22.17s-22.07,6.09-26.27,12.71c-1.68,3.05-2.63,6.2-2.63,9.46Z"/>
        <path class="cls-1" d="M254.37,57.35c-1.84-5.63-5.76-10.2-11.01-12.86L160.23,2.39c-5.26-2.66-11.26-3.11-16.89-1.27-5.63,1.85-10.2,5.76-12.86,11.02l-43.44,85.76c-2.66,5.26-3.11,11.25-1.27,16.89s5.76,10.2,11.01,12.86l83.13,42.1c3.13,1.58,6.52,2.39,9.94,2.39,2.33,0,4.67-.37,6.95-1.12,5.63-1.84,10.2-5.76,12.86-11.01l43.44-85.76c2.66-5.26,3.11-11.25,1.27-16.89Zm-92.8,68.71c0,.67-1.89,1.86-4.31,1.86h-12.71c-2.42,0-4.31-1.19-4.31-1.86v-50.51c0-.67,1.89-1.86,4.31-1.86h12.71c2.42,0,4.31,1.19,4.31,1.86v50.51Zm0-57.56c0,.24-1.89,.67-4.31,.67h-12.71c-2.42,0-4.31-.43-4.31-.67v-18.17c0-.24,1.89-.67,4.31-.67h12.71c2.42,0,4.31,.43,4.31,.67v18.17Zm37.58,57.56c0,.67-1.89,1.86-4.31,1.86h-12.71c-2.42,0-4.31-1.19-4.31-1.86v-50.51c0-.67,1.89-1.86,4.31-1.86h12.71c2.42,0,4.31,1.19,4.31,1.86v50.51Zm0-57.56c0,.24-1.89,.67-4.31,.67h-12.71c-2.42,0-4.31-.43-4.31-.67v-18.17c0-.24,1.89-.67,4.31-.67h12.71c2.42,0,4.31,.43,4.31,.67v18.17Z"/>
      </g>
      <g>
        <path class="cls-1" d="M237.11,175.9c-.27,0-.47-.08-.62-.25-.15-.17-.22-.36-.22-.6v-34.62c0-.56,.28-.85,.85-.85h18.3c3.51,0,6.65,.43,9.4,1.29,2.75,.86,5.08,2.08,6.99,3.66,1.91,1.58,3.37,3.48,4.38,5.72,1.01,2.24,1.52,4.73,1.52,7.49,0,2.22-.37,4.42-1.12,6.59s-1.99,4.11-3.73,5.82c-1.74,1.71-4.03,3.09-6.86,4.15-2.83,1.06-6.36,1.59-10.57,1.59h-18.3Zm6.02-7.71c0,.23,.07,.43,.22,.6,.15,.17,.34,.25,.57,.25h11.49c2.79,0,5.16-.21,7.11-.62,1.96-.41,3.56-1.08,4.8-1.99,1.24-.91,2.15-2.08,2.71-3.51,.56-1.42,.85-3.15,.85-5.17,0-1.62-.25-3.03-.75-4.23-.5-1.19-1.16-2.21-1.99-3.06-.83-.85-1.77-1.52-2.83-2.04-1.06-.51-2.16-.92-3.31-1.22-1.14-.3-2.29-.5-3.43-.6s-2.2-.15-3.16-.15h-11.49c-.53,0-.8,.28-.8,.85v20.89Z"/>
        <path class="cls-1" d="M284.32,140.18c0-.36,.2-.55,.6-.55h33.33c.17,0,.28,.08,.35,.25l1.94,6.12c.07,.13,.06,.25-.02,.35-.08,.1-.19,.15-.32,.15h-28.45c-.37,0-.55,.18-.55,.55v6.81c0,.27,.12,.4,.35,.4h21.29c.13,0,.23,.05,.3,.15,.07,.1,.08,.2,.05,.3l-1.94,6.12c-.07,.2-.2,.3-.4,.3h-19.3c-.23,0-.35,.12-.35,.35v6.81c0,.17,.05,.31,.15,.42,.1,.12,.23,.17,.4,.17h28.45c.13,0,.24,.05,.32,.15,.08,.1,.09,.2,.02,.3l-1.94,6.12c-.07,.17-.18,.25-.35,.25h-33.33c-.4,0-.6-.18-.6-.55v-34.97Z"/>
        <path class="cls-1" d="M324.56,139.58h7.41c.13,0,.22,.05,.25,.15l15.92,26.11c.07,.1,.15,.15,.25,.15s.17-.05,.2-.15l14.28-26.11c0-.1,.07-.15,.2-.15h7.21c.1,0,.18,.04,.25,.12,.07,.08,.07,.17,0,.27l-19.55,35.76c-.1,.1-.17,.15-.2,.15h-4.43c-.1,0-.18-.05-.25-.15l-21.74-35.76c-.07-.07-.07-.15-.02-.25s.12-.15,.22-.15Z"/>
        <path class="cls-1" d="M375.79,140.18c0-.36,.2-.55,.6-.55h33.33c.17,0,.28,.08,.35,.25l1.94,6.12c.07,.13,.06,.25-.02,.35-.08,.1-.19,.15-.32,.15h-28.45c-.37,0-.55,.18-.55,.55v6.81c0,.27,.12,.4,.35,.4h21.29c.13,0,.23,.05,.3,.15,.07,.1,.08,.2,.05,.3l-1.94,6.12c-.07,.2-.2,.3-.4,.3h-19.3c-.23,0-.35,.12-.35,.35v6.81c0,.17,.05,.31,.15,.42,.1,.12,.23,.17,.4,.17h28.45c.13,0,.24,.05,.32,.15,.08,.1,.09,.2,.02,.3l-1.94,6.12c-.07,.17-.18,.25-.35,.25h-33.33c-.4,0-.6-.18-.6-.55v-34.97Z"/>
        <path class="cls-1" d="M420.31,175.85c-.3,0-.45-.15-.45-.45v-35.37c0-.3,.15-.45,.45-.45h5.97c.3,0,.45,.15,.45,.45v28.5c0,.3,.15,.45,.45,.45h28.15c.27,0,.36,.13,.3,.4l-1.99,6.27c-.07,.13-.17,.2-.3,.2h-33.03Z"/>
        <path class="cls-1" d="M481.19,176.64c-1.56,0-3.2-.19-4.92-.57-1.72-.38-3.42-.94-5.1-1.67-1.68-.73-3.28-1.63-4.8-2.71-1.53-1.08-2.87-2.32-4.03-3.73-1.16-1.41-2.08-2.97-2.76-4.68-.68-1.71-1.02-3.57-1.02-5.6,0-2.25,.35-4.29,1.04-6.09s1.63-3.41,2.81-4.8c1.18-1.39,2.53-2.59,4.05-3.61,1.52-1.01,3.12-1.84,4.8-2.49,1.67-.65,3.37-1.13,5.07-1.44,1.71-.31,3.32-.47,4.85-.47,2.45,0,5.02,.38,7.68,1.14,2.67,.76,5.11,1.92,7.34,3.48,2.22,1.56,4.05,3.52,5.5,5.89,1.44,2.37,2.16,5.17,2.16,8.38,0,2.82-.57,5.39-1.72,7.71-1.14,2.32-2.74,4.32-4.77,5.99-2.04,1.68-4.44,2.97-7.19,3.88-2.75,.91-5.75,1.37-9,1.37Zm0-30.99c-2.19,0-4.24,.32-6.14,.95-1.91,.63-3.57,1.49-5,2.59-1.43,1.09-2.55,2.37-3.38,3.83-.83,1.46-1.24,3.02-1.24,4.68s.41,3.23,1.24,4.7c.83,1.48,1.96,2.76,3.38,3.86,1.43,1.09,3.09,1.96,5,2.59,1.91,.63,3.95,.95,6.14,.95s4.24-.31,6.14-.95c1.91-.63,3.58-1.49,5.02-2.59,1.44-1.09,2.58-2.38,3.41-3.86,.83-1.47,1.24-3.04,1.24-4.7s-.42-3.22-1.24-4.68c-.83-1.46-1.96-2.74-3.41-3.83-1.44-1.09-3.12-1.96-5.02-2.59-1.91-.63-3.95-.95-6.14-.95Z"/>
        <path class="cls-1" d="M509.39,139.53h27.85c1.56,0,3.03,.32,4.4,.97,1.38,.65,2.59,1.53,3.63,2.64,1.04,1.11,1.87,2.4,2.46,3.85,.6,1.46,.88,3.02,.85,4.68-.03,1.56-.36,3.02-.97,4.38-.61,1.36-1.44,2.55-2.49,3.56-1.04,1.01-2.26,1.81-3.66,2.39-1.39,.58-2.87,.87-4.43,.87h-20.79c-.27,0-.4,.13-.4,.4v12.19c0,.27-.13,.4-.4,.4h-6.07c-.27,0-.4-.13-.4-.4v-35.46c0-.3,.13-.45,.4-.45Zm6.47,16.07c0,.27,.13,.4,.4,.4h20.89c.63,0,1.22-.12,1.77-.35,.55-.23,1.04-.55,1.47-.97,.43-.41,.76-.9,.99-1.44,.23-.55,.35-1.14,.35-1.77,0-.66-.12-1.3-.37-1.92-.25-.61-.58-1.15-.99-1.62-.42-.46-.89-.84-1.42-1.12-.53-.28-1.09-.42-1.69-.42h-20.99c-.27,0-.4,.13-.4,.4v8.8Z"/>
        <path class="cls-1" d="M555.2,140.18c0-.36,.2-.55,.6-.55h33.33c.17,0,.28,.08,.35,.25l1.94,6.12c.07,.13,.06,.25-.02,.35-.08,.1-.19,.15-.32,.15h-28.45c-.37,0-.55,.18-.55,.55v6.81c0,.27,.12,.4,.35,.4h21.29c.13,0,.23,.05,.3,.15,.07,.1,.08,.2,.05,.3l-1.94,6.12c-.07,.2-.2,.3-.4,.3h-19.3c-.23,0-.35,.12-.35,.35v6.81c0,.17,.05,.31,.15,.42,.1,.12,.23,.17,.4,.17h28.45c.13,0,.24,.05,.32,.15,.08,.1,.09,.2,.02,.3l-1.94,6.12c-.07,.17-.18,.25-.35,.25h-33.33c-.4,0-.6-.18-.6-.55v-34.97Z"/>
        <path class="cls-1" d="M597.68,139.88c0-.2,.1-.3,.3-.3h27.95c1.62,0,3.12,.32,4.5,.97,1.38,.65,2.57,1.52,3.58,2.61,1.01,1.09,1.81,2.35,2.39,3.76,.58,1.41,.87,2.86,.87,4.35s-.28,2.93-.85,4.23c-.56,1.29-1.34,2.42-2.34,3.38-.99,.96-2.18,1.72-3.56,2.26-1.38,.55-2.86,.84-4.45,.87-.13,0-.15,.05-.05,.15l12.19,13.28c.07,.07,.07,.15,.02,.25s-.12,.15-.22,.15h-8.06c-.07,0-.13-.03-.2-.1l-12.53-13.63c-.07-.07-.13-.1-.2-.1h-12.19c-.2,0-.3,.1-.3,.3v13.18c0,.2-.1,.3-.3,.3h-6.27c-.2,0-.3-.1-.3-.3v-35.61Zm7.16,15.27h21.09c.53,0,1.06-.08,1.59-.22,.53-.15,1.01-.38,1.44-.7,.43-.31,.78-.72,1.04-1.22,.27-.5,.4-1.08,.4-1.74s-.12-1.29-.37-1.87-.59-1.09-1.02-1.52c-.43-.43-.91-.78-1.44-1.04-.53-.27-1.08-.4-1.64-.4h-21.09c-.2,0-.3,.1-.3,.3v8.11c0,.2,.1,.3,.3,.3Z"/>
        <path class="cls-1" d="M664.18,176.64c-2.92,0-5.55-.15-7.88-.45-2.34-.3-4.36-.64-6.07-1.02-1.71-.38-3.07-.75-4.08-1.09-1.01-.35-1.67-.59-1.96-.72-.1-.07-.15-.13-.15-.2l-.75-7.66c0-.23,.08-.35,.25-.35,.03,0,.06,0,.07,.03,.02,.02,.04,.02,.07,.02,.46,.27,1.24,.66,2.34,1.17,1.09,.51,2.5,1.02,4.23,1.52,1.72,.5,3.75,.94,6.07,1.32,2.32,.38,4.94,.57,7.86,.57,3.81,0,6.81-.42,8.98-1.27,2.17-.85,3.26-1.96,3.26-3.36,0-.5-.27-.97-.8-1.42-.53-.45-1.38-.85-2.54-1.19-1.16-.35-2.64-.62-4.43-.82s-3.96-.3-6.52-.3c-3.18,0-5.88-.2-8.08-.6-2.21-.4-4.05-.92-5.52-1.57-1.48-.65-2.64-1.37-3.48-2.16s-1.48-1.6-1.89-2.41c-.42-.81-.67-1.58-.77-2.31-.1-.73-.15-1.33-.15-1.79,0-2.35,.65-4.29,1.96-5.82,1.31-1.52,2.99-2.73,5.05-3.61,2.06-.88,4.37-1.49,6.94-1.84,2.57-.35,5.1-.52,7.59-.52,2.25,0,4.32,.14,6.19,.42,1.87,.28,3.52,.61,4.95,.97,1.43,.37,2.59,.72,3.48,1.07,.9,.35,1.48,.59,1.74,.72,.1,0,.15,.07,.15,.2l.5,7.41c.07,.2-.02,.3-.25,.3-.03,0-.06,0-.07-.03-.02-.02-.04-.02-.07-.02-.6-.37-1.43-.79-2.51-1.27-1.08-.48-2.35-.94-3.81-1.37-1.46-.43-3.06-.8-4.8-1.09-1.74-.3-3.57-.45-5.5-.45-3.12,0-5.64,.17-7.56,.5-1.92,.33-3.42,.74-4.48,1.22-1.06,.48-1.77,1.01-2.11,1.59-.35,.58-.52,1.12-.52,1.62,0,1.39,1.16,2.4,3.48,3.03,2.32,.63,5.5,.94,9.55,.94,1.23,0,2.6,.03,4.13,.1,1.52,.07,3.08,.22,4.68,.47s3.15,.61,4.68,1.07c1.52,.46,2.88,1.1,4.08,1.92,1.19,.81,2.16,1.82,2.88,3.01,.73,1.19,1.09,2.62,1.09,4.28,0,.37-.07,.9-.2,1.62-.13,.71-.42,1.48-.87,2.31s-1.1,1.67-1.96,2.54c-.86,.86-2.01,1.65-3.46,2.36-1.44,.71-3.23,1.29-5.35,1.74-2.12,.45-4.68,.67-7.66,.67Z"/>
      </g>
    </g>
  </g>
</svg>