<svg xmlns="http://www.w3.org/2000/svg" x="0px" y="0px" viewBox="0 0 161.7 51.9">
<path fill="#050046" d="M76.7,17.3c-0.6-1.7-1.7-3.1-3.3-3.9L48.3,0.7c-1.6-0.8-3.4-0.9-5.1-0.4c-1.7,0.6-3.1,1.7-3.9,3.3 L26.2,29.5c-0.8,1.6-0.9,3.4-0.4,5.1c0.6,1.7,1.7,3.1,3.3,3.9l25.1,12.7c0.9,0.5,2,0.7,3,0.7c0.7,0,1.4-0.1,2.1-0.3 c1.7-0.6,3.1-1.7,3.9-3.3l13.1-25.9C77.1,20.8,77.3,19,76.7,17.3z M48.7,38c0,0.2-0.6,0.6-1.3,0.6h-3.8c-0.7,0-1.3-0.4-1.3-0.6 V22.8c0-0.2,0.6-0.6,1.3-0.6h3.8c0.7,0,1.3,0.4,1.3,0.6V38z M48.7,20.7c0,0.1-0.6,0.2-1.3,0.2h-3.8c-0.7,0-1.3-0.1-1.3-0.2v-5.5 c0-0.1,0.6-0.2,1.3-0.2h3.8c0.7,0,1.3,0.1,1.3,0.2V20.7z M60.1,38c0,0.2-0.6,0.6-1.3,0.6h-3.8c-0.7,0-1.3-0.4-1.3-0.6V22.8 c0-0.2,0.6-0.6,1.3-0.6h3.8c0.7,0,1.3,0.4,1.3,0.6V38z M60.1,20.7c0,0.1-0.6,0.2-1.3,0.2h-3.8c-0.7,0-1.3-0.1-1.3-0.2v-5.5 c0-0.1,0.6-0.2,1.3-0.2h3.8c0.7,0,1.3,0.1,1.3,0.2V20.7z"/>
<path fill="#666666" d="M6.4,30.1v7c0,0.2-0.7,0.8-1.3,0.8H1.3C0.6,38,0,37.4,0,37.1V15.7c0-0.6,0.9-0.9,1.3-0.9h17.3 c4.3,0,8.1,3.4,8.1,7.8v0.1c-0.2,4.4-4,7.4-8.3,7.4H6.4z M6.4,24.7h12.1c1,0,1.8-1.2,1.8-2.1c0-0.9-0.7-2.5-1.7-2.5H6.4V24.7z M79.7,35.2L78,38.5c-0.1,0.3-0.8,0.6-1.3,0.6h-4.2c-0.7,0-1.3-0.6-1.3-0.8c0-0.1,0-0.2,0.1-0.3l11-21.5 c0.1-0.1,0.4-0.6,1.3-0.6h4.6c1,0,1.2,0.5,1.3,0.6L100.5,38c0,0.1,0.1,0.2,0.1,0.3c0,0.1,0,0.2-0.1,0.3c-0.2,0.4-0.7,0.5-1.2,0.5 H95c-0.6,0-1.1-0.3-1.3-0.6L92,35.2H79.7z M85.8,23.2c-0.4,0.8-1,1.9-1.5,2.9c-0.5,1.1-1.1,2.2-1.5,3c-0.2,0.3-0.3,0.6-0.4,0.8 h6.9L85.8,23.2z M108.9,25.2v13c0,0.7-0.9,0.9-1.4,0.9h-3.6c-0.8,0-1.2-0.4-1.2-0.5c-0.1-0.1-0.2-0.3-0.2-0.4V16.8 c0-0.1,0.1-0.3,0.2-0.4c0.1-0.1,0.4-0.5,1.2-0.5h3.1c0.7,0,0.9,0.1,1.1,0.4l14.1,13.4l0-12.9c0-0.1,0.1-0.3,0.2-0.4 c0.1-0.1,0.4-0.5,1.2-0.5h3.6c0.8,0,1.2,0.4,1.2,0.5c0.1,0.2,0.2,0.3,0.2,0.4l0,21.3c0,0.1,0,0.3-0.2,0.4 c-0.1,0.1-0.4,0.5-1.3,0.5h-2.9c-0.7,0-0.9-0.1-1.2-0.4L108.9,25.2z M131.4,27.5c0-3.9,2-8.6,8.8-10.9c1.8-0.6,4.1-1.1,6.4-1.1c7,0,15.2,4.2,15.2,12.1c0,1.6-0.3,3.2-1.1,4.8 c-1.7,3.5-6.2,7.3-14.1,7.3C139.9,39.5,131.4,34.8,131.4,27.5z M137.9,27.5c0,4.4,4.9,6.7,8.7,6.7c3.9,0,6.8-1.9,8-4.1 c0.5-0.9,0.8-1.8,0.8-2.7c0-4.3-5-6.7-8.7-6.7c-3.8,0-6.7,1.8-7.9,3.8C138.1,25.5,137.9,26.5,137.9,27.5z"/>
</svg>
