<svg xmlns="http://www.w3.org/2000/svg" xmlns:xlink="http://www.w3.org/1999/xlink" width="845.2" height="418.35" viewBox="0 0 845.2 418.35">
  <defs>
    <style>
      .cls-1 {
        isolation: isolate;
      }

      .cls-2 {
        fill: url(#linear-gradient);
      }

      .cls-3, .cls-37, .cls-4, .cls-6 {
        fill: #fff;
      }

      .cls-4 {
        font-size: 30.58px;
      }

      .cls-37, .cls-4 {
        font-family: Montserrat-SemiBold, Montserrat, sans-serif, Ariel;
        font-weight: 600;
      }

      .cls-5 {
        fill: url(#linear-gradient-2);
      }

      .cls-6 {
        font-size: 21.85px;
        font-family: Montserrat-Medium, Montserrat, sans-serif, Ariel;
        font-weight: 500;
      }

      .cls-7 {
        fill: #826fff;
      }

      .cls-8 {
        fill: url(#linear-gradient-3);
      }

      .cls-9 {
        opacity: 0.5;
      }

      .cls-10 {
        fill: url(#_ÂÁ_Ï_ÌÌ_È_ËÂÌÚ_31);
      }

      .cls-11, .cls-30 {
        fill: #0f054c;
      }

      .cls-11 {
        opacity: 0.6;
      }

      .cls-12 {
        fill: url(#_ÂÁ_Ï_ÌÌ_È_ËÂÌÚ_31-2);
      }

      .cls-13 {
        fill: url(#_ÂÁ_Ï_ÌÌ_È_ËÂÌÚ_85);
      }

      .cls-14 {
        fill: #251c72;
      }

      .cls-15 {
        fill: #42cee5;
        opacity: 0.4;
      }

      .cls-16 {
        fill: url(#_ÂÁ_Ï_ÌÌ_È_ËÂÌÚ_31-3);
      }

      .cls-17 {
        fill: url(#_ÂÁ_Ï_ÌÌ_È_ËÂÌÚ_31-4);
      }

      .cls-18 {
        fill: url(#_ÂÁ_Ï_ÌÌ_È_ËÂÌÚ_85-2);
      }

      .cls-19 {
        fill: #42e8e0;
      }

      .cls-20 {
        fill: #29d7ff;
      }

      .cls-21 {
        fill: #2fd3c7;
      }

      .cls-22 {
        fill: #14c7f7;
      }

      .cls-23 {
        fill: #18b2a3;
        opacity: 0.7;
      }

      .cls-24 {
        fill: url(#_ÂÁ_Ï_ÌÌ_È_ËÂÌÚ_31-5);
      }

      .cls-25 {
        fill: url(#_ÂÁ_Ï_ÌÌ_È_ËÂÌÚ_31-6);
      }

      .cls-26 {
        fill: url(#_ÂÁ_Ï_ÌÌ_È_ËÂÌÚ_85-3);
      }

      .cls-27, .cls-34 {
        fill: #01d0f7;
      }

      .cls-27 {
        opacity: 0.51;
      }

      .cls-28 {
        fill: url(#_ÂÁ_Ï_ÌÌ_È_ËÂÌÚ_31-7);
      }

      .cls-29 {
        fill: url(#_ÂÁ_Ï_ÌÌ_È_ËÂÌÚ_31-8);
      }

      .cls-30 {
        opacity: 0.75;
      }

      .cls-31 {
        fill: url(#_ÂÁ_Ï_ÌÌ_È_ËÂÌÚ_31-9);
      }

      .cls-32 {
        fill: url(#_ÂÁ_Ï_ÌÌ_È_ËÂÌÚ_31-10);
      }

      .cls-33 {
        fill: url(#_ÂÁ_Ï_ÌÌ_È_ËÂÌÚ_85-4);
      }

      .cls-34 {
        opacity: 0.56;
      }

      .cls-35, .cls-36 {
        mix-blend-mode: screen;
      }

      .cls-35 {
        fill: url(#radial-gradient);
      }

      .cls-36 {
        fill: url(#radial-gradient-2);
      }

      .cls-37 {
        font-size: 19.04px;
      }

      .cls-38 {
        fill: url(#linear-gradient-4);
      }

      .cls-39 {
        fill: url(#linear-gradient-5);
      }
    </style>
    <linearGradient id="linear-gradient" x1="700.59" y1="151.86" x2="700.59" y2="244.61" gradientUnits="userSpaceOnUse">
      <stop offset="0" stop-color="#00a4fd"/>
      <stop offset="0.27" stop-color="#0092f0"/>
      <stop offset="0.81" stop-color="#0063ce"/>
      <stop offset="0.91" stop-color="#005ac7"/>
    </linearGradient>
    <linearGradient id="linear-gradient-2" x1="169.83" y1="157.84" x2="169.83" y2="243.69" gradientUnits="userSpaceOnUse">
      <stop offset="0" stop-color="#826fff"/>
      <stop offset="1" stop-color="#4c32ab"/>
    </linearGradient>
    <linearGradient id="linear-gradient-3" x1="31.39" y1="45.58" x2="68.9" y2="45.58" xlink:href="#linear-gradient-2"/>
    <linearGradient id="_ÂÁ_Ï_ÌÌ_È_ËÂÌÚ_31" data-name="¡ÂÁ˚ÏˇÌÌ˚È „‡‰ËÂÌÚ 31" x1="-8419.59" y1="-2666.79" x2="-8411.27" y2="-2666.79" gradientTransform="matrix(-0.88, -0.48, -0.48, 0.88, -8620.5, -1640.67)" gradientUnits="userSpaceOnUse">
      <stop offset="0" stop-color="#bcbeff"/>
      <stop offset="0.17" stop-color="#b6b8fc"/>
      <stop offset="0.4" stop-color="#a4a8f5"/>
      <stop offset="0.66" stop-color="#868dea"/>
      <stop offset="0.96" stop-color="#5e67da"/>
      <stop offset="1" stop-color="#5761d7"/>
    </linearGradient>
    <linearGradient id="_ÂÁ_Ï_ÌÌ_È_ËÂÌÚ_31-2" x1="-8421.82" y1="-2666.61" x2="-8411.9" y2="-2666.61" xlink:href="#_ÂÁ_Ï_ÌÌ_È_ËÂÌÚ_31"/>
    <linearGradient id="_ÂÁ_Ï_ÌÌ_È_ËÂÌÚ_85" data-name="¡ÂÁ˚ÏˇÌÌ˚È „‡‰ËÂÌÚ 85" x1="-8423.19" y1="-2666.61" x2="-8405.3" y2="-2666.61" gradientTransform="matrix(-0.88, -0.48, -0.48, 0.88, -8620.5, -1640.67)" gradientUnits="userSpaceOnUse">
      <stop offset="0" stop-color="#706ec4"/>
      <stop offset="0.02" stop-color="#6d6bc2"/>
      <stop offset="0.25" stop-color="#5651ac"/>
      <stop offset="0.49" stop-color="#463f9d"/>
      <stop offset="0.73" stop-color="#3c3494"/>
      <stop offset="1" stop-color="#393091"/>
    </linearGradient>
    <linearGradient id="_ÂÁ_Ï_ÌÌ_È_ËÂÌÚ_31-3" x1="-8430.27" y1="-2666.79" x2="-8421.95" y2="-2666.79" xlink:href="#_ÂÁ_Ï_ÌÌ_È_ËÂÌÚ_31"/>
    <linearGradient id="_ÂÁ_Ï_ÌÌ_È_ËÂÌÚ_31-4" x1="-8431.73" y1="-2666.61" x2="-8421.82" y2="-2666.61" xlink:href="#_ÂÁ_Ï_ÌÌ_È_ËÂÌÚ_31"/>
    <linearGradient id="_ÂÁ_Ï_ÌÌ_È_ËÂÌÚ_85-2" x1="-8433.1" y1="-2666.61" x2="-8415.22" y2="-2666.61" xlink:href="#_ÂÁ_Ï_ÌÌ_È_ËÂÌÚ_85"/>
    <linearGradient id="_ÂÁ_Ï_ÌÌ_È_ËÂÌÚ_31-5" x1="-8430.17" y1="-2661.1" x2="-8421.85" y2="-2661.1" xlink:href="#_ÂÁ_Ï_ÌÌ_È_ËÂÌÚ_31"/>
    <linearGradient id="_ÂÁ_Ï_ÌÌ_È_ËÂÌÚ_31-6" x1="-8432.39" y1="-2660.92" x2="-8422.48" y2="-2660.92" xlink:href="#_ÂÁ_Ï_ÌÌ_È_ËÂÌÚ_31"/>
    <linearGradient id="_ÂÁ_Ï_ÌÌ_È_ËÂÌÚ_85-3" x1="-8433.76" y1="-2660.92" x2="-8415.88" y2="-2660.92" xlink:href="#_ÂÁ_Ï_ÌÌ_È_ËÂÌÚ_85"/>
    <linearGradient id="_ÂÁ_Ï_ÌÌ_È_ËÂÌÚ_31-7" x1="-8408.65" y1="-2657.48" x2="-8415.29" y2="-2660.45" xlink:href="#_ÂÁ_Ï_ÌÌ_È_ËÂÌÚ_31"/>
    <linearGradient id="_ÂÁ_Ï_ÌÌ_È_ËÂÌÚ_31-8" x1="-1259.75" y1="-2659.33" x2="-1291.68" y2="-2661.39" gradientTransform="translate(-100.09 2997.02) rotate(28.56)" xlink:href="#_ÂÁ_Ï_ÌÌ_È_ËÂÌÚ_31"/>
    <linearGradient id="_ÂÁ_Ï_ÌÌ_È_ËÂÌÚ_31-9" x1="-8427.69" y1="-2670.18" x2="-8411.99" y2="-2670.18" xlink:href="#_ÂÁ_Ï_ÌÌ_È_ËÂÌÚ_31"/>
    <linearGradient id="_ÂÁ_Ï_ÌÌ_È_ËÂÌÚ_31-10" x1="-8431.5" y1="-2670.64" x2="-8412.14" y2="-2670.64" xlink:href="#_ÂÁ_Ï_ÌÌ_È_ËÂÌÚ_31"/>
    <linearGradient id="_ÂÁ_Ï_ÌÌ_È_ËÂÌÚ_85-4" x1="-8434.17" y1="-2670.64" x2="-8399.25" y2="-2670.64" xlink:href="#_ÂÁ_Ï_ÌÌ_È_ËÂÌÚ_85"/>
    <radialGradient id="radial-gradient" cx="37.93" cy="28.5" r="19.34" gradientUnits="userSpaceOnUse">
      <stop offset="0.05" stop-color="#f3a400"/>
      <stop offset="0.41" stop-color="#f3a301" stop-opacity="0.99"/>
      <stop offset="0.54" stop-color="#f3a007" stop-opacity="0.96"/>
      <stop offset="0.63" stop-color="#f29a10" stop-opacity="0.92"/>
      <stop offset="0.7" stop-color="#f2911c" stop-opacity="0.85"/>
      <stop offset="0.77" stop-color="#f1862d" stop-opacity="0.76"/>
      <stop offset="0.82" stop-color="#f17842" stop-opacity="0.64"/>
      <stop offset="0.87" stop-color="#f0685a" stop-opacity="0.51"/>
      <stop offset="0.92" stop-color="#e57" stop-opacity="0.35"/>
      <stop offset="0.96" stop-color="#ed4096" stop-opacity="0.19"/>
      <stop offset="1" stop-color="#ec29b8" stop-opacity="0"/>
    </radialGradient>
    <radialGradient id="radial-gradient-2" cx="44.57" cy="27.37" r="17.17" xlink:href="#radial-gradient"/>
    <linearGradient id="linear-gradient-4" x1="453.96" y1="72.12" x2="453.96" y2="164.8" gradientUnits="userSpaceOnUse">
      <stop offset="0.11" stop-color="#ffa861"/>
      <stop offset="1" stop-color="#ff7442"/>
    </linearGradient>
    <linearGradient id="linear-gradient-5" x1="453.96" y1="230.63" x2="453.96" y2="323.31" xlink:href="#linear-gradient-4"/>
  </defs>
  <g class="cls-1">
    <g id="Layer_1" data-name="Layer 1">
      <g>
        <rect class="cls-2" x="654.21" y="151.86" width="92.75" height="92.75"/>
        <g>
          <path class="cls-3" d="M720.7,180.74c-.71,0-1.38,0-2.05,0-.26,0-.23-.16-.23-.32v-3.67c-.18.13-.31.22-.43.32a17,17,0,0,1-4.44,2.4,35.89,35.89,0,0,1-8.12,1.95,58.47,58.47,0,0,1-7.48.48,57,57,0,0,1-7.61-.47,38.47,38.47,0,0,1-6.56-1.39,19.33,19.33,0,0,1-5.93-2.89l-.54-.41v.46c0,4.12,0,8.25,0,12.38a2.9,2.9,0,0,0,.87,2.07,10.86,10.86,0,0,0,3.43,2.29,29,29,0,0,0,6.43,2,40.88,40.88,0,0,0,6.25.76c1.51,0,3,.11,4.53.08s2.73-.15,4.09-.25c.49,0,.5-.06.56.42s.14,1.17.21,1.79c-.65.07-1.27.16-1.89.19-1.65.07-3.3.17-4.95.14-1.81,0-3.62-.15-5.42-.32A35.92,35.92,0,0,1,683,197a17.73,17.73,0,0,1-5.35-2.74l-.24-.16h-.11v.37c0,3.91,0,7.82,0,11.73a2.22,2.22,0,0,0,.4,1.29,6.53,6.53,0,0,0,2,1.82,21.09,21.09,0,0,0,6.2,2.53,37,37,0,0,0,6.93,1.14c1.55.11,3.1.23,4.65.21,1.89,0,3.77-.17,5.65-.28.23,0,.3,0,.32.26,0,.65.14,1.3.22,2-1,.07-1.92.19-2.87.22-1.93,0-3.86.09-5.79,0-1.76-.06-3.52-.23-5.27-.45a34,34,0,0,1-5.46-1.17,22.39,22.39,0,0,1-4.39-1.73c-.79-.44-1.53-1-2.3-1.46l-.27-.17v.42c0,3.14,0,6.29,0,9.43a3.55,3.55,0,0,0,1.39,2.82,17.18,17.18,0,0,0,6.43,3.12,34.58,34.58,0,0,0,6,1.2c1.5.17,3,.27,4.52.35,1.19.06,2.39.06,3.59,0a48.3,48.3,0,0,0,6.46-.58,35.24,35.24,0,0,0,5.17-1.2,16.85,16.85,0,0,0,5-2.32c.61-.44,1.15-1,1.76-1.52.52.32,1.11.7,1.69,1.09,0,0,0,.21,0,.28a8.08,8.08,0,0,1-2,1.91,19.16,19.16,0,0,1-5.09,2.51,39.45,39.45,0,0,1-7.82,1.73,55.86,55.86,0,0,1-7.65.4,53.13,53.13,0,0,1-7.65-.66,34.31,34.31,0,0,1-6.7-1.71,17.61,17.61,0,0,1-4.42-2.32,6.89,6.89,0,0,1-2.57-3.15,5.11,5.11,0,0,1-.33-1.73q0-23.91,0-47.83a4.79,4.79,0,0,1,1.21-3.09,12.5,12.5,0,0,1,4.69-3.34,33.29,33.29,0,0,1,9.66-2.53,58.87,58.87,0,0,1,10-.38,45.87,45.87,0,0,1,9,1.17,26.21,26.21,0,0,1,6.15,2.19A12.63,12.63,0,0,1,719,169a5.49,5.49,0,0,1,1.64,3,4.17,4.17,0,0,1,0,.61c0,2.62,0,5.23,0,7.85C720.71,180.53,720.7,180.61,720.7,180.74ZM697.86,165.6c-.8,0-1.6,0-2.4,0a47.77,47.77,0,0,0-6.64.7,28.93,28.93,0,0,0-8,2.47,8.81,8.81,0,0,0-2.75,2,2.41,2.41,0,0,0-.59,2.73,4.27,4.27,0,0,0,1.25,1.55,14.35,14.35,0,0,0,4.44,2.35,35.53,35.53,0,0,0,6.91,1.67,55,55,0,0,0,6.28.53,49.3,49.3,0,0,0,7.49-.31c1.82-.23,3.63-.56,5.43-.94a22.8,22.8,0,0,0,5.2-1.77,9.66,9.66,0,0,0,3.25-2.33,2.42,2.42,0,0,0,.28-2.93,4.55,4.55,0,0,0-.57-.74,11.07,11.07,0,0,0-3.7-2.34,33.61,33.61,0,0,0-8.31-2.18A47.16,47.16,0,0,0,697.86,165.6Z"/>
          <text class="cls-4" transform="translate(705.82 213.8) scale(0.71 1)">DB</text>
        </g>
      </g>
      <g>
        <g>
          <path class="cls-5" d="M169.83,157.84a42.93,42.93,0,1,0,42.92,42.93,42.93,42.93,0,0,0-42.92-42.93Z"/>
          <g>
            <path class="cls-3" d="M157.4,200.84c0,2.25,0,4.5,0,6.75,0,1.41-.59,2-2,2-4.59,0-9.17,0-13.75,0-1.4,0-2-.57-2-2q0-6.87,0-13.74c0-1.4.6-2,2-2q6.93,0,13.87,0c1.25,0,1.83.6,1.84,1.87C157.41,196.1,157.4,198.47,157.4,200.84Zm-14.6-.23c0,1.56,0,3.13,0,4.7,0,.79.22,1.16,1.09,1.15,3.13,0,6.26,0,9.4,0,.74,0,1.08-.2,1.07-1,0-3.13,0-6.27,0-9.4,0-.81-.35-1-1.09-1-3.13,0-6.26,0-9.4,0-.88,0-1.09.39-1.07,1.17C142.83,197.63,142.8,199.12,142.8,200.61Z"/>
            <path class="cls-3" d="M179.43,184.44c0-1.36,0-2.73,0-4.1a1.55,1.55,0,0,1,1.71-1.73q4.16-.06,8.31,0c1.27,0,1.88.57,1.91,1.85q.1,4.16,0,8.31c0,1.25-.68,1.76-2,1.77h-8.07c-1.4,0-1.88-.48-1.91-1.87S179.43,185.85,179.43,184.44Zm8.73-2.69c-1.76,0-3.35,0-4.94,0a1,1,0,0,0-.66.73,34.54,34.54,0,0,0,0,4.07,1.22,1.22,0,0,0,.81.85,34.54,34.54,0,0,0,4.07,0,1,1,0,0,0,.69-.69C188.19,185.15,188.16,183.56,188.16,181.75Z"/>
            <path class="cls-3" d="M179.43,200.6c0-1.36,0-2.73,0-4.1a1.56,1.56,0,0,1,1.7-1.74c2.81,0,5.62,0,8.44,0a1.62,1.62,0,0,1,1.78,1.71c.07,2.85.08,5.7,0,8.55a1.66,1.66,0,0,1-1.91,1.7c-2.69,0-5.38,0-8.07,0-1.39,0-1.93-.58-1.95-2S179.43,202,179.43,200.6Zm8.68-2.7c-1.69,0-3.25,0-4.81,0a1.09,1.09,0,0,0-.74.77,37.36,37.36,0,0,0,0,4c0,.29.38.8.6.81,1.63.07,3.27,0,5,0Z"/>
            <path class="cls-3" d="M179.43,216.82c0-1.29,0-2.57,0-3.85,0-1.54.5-2.05,2-2.06h7.95c1.29,0,1.94.51,2,1.76.08,2.8.07,5.61,0,8.42a1.67,1.67,0,0,1-1.86,1.76c-2.77,0-5.54,0-8.31,0a1.6,1.6,0,0,1-1.76-1.81C179.41,219.63,179.43,218.22,179.43,216.82Zm8.68-2.75c-1.68,0-3.32,0-5,0-.22,0-.59.49-.61.77-.06,1.32-.06,2.65,0,4,0,.29.39.78.62.79,1.63.07,3.26,0,4.94,0Z"/>
            <path class="cls-3" d="M172.8,213.38l-.65-3.09,2.93-.82c.62,2.26,1.32,4.43,1.76,6.64a2.11,2.11,0,0,1-1,1.8c-2.14.75-4.37,1.27-6.71,1.91l-.84-3L171,216l-12.22-6.5,1.42-2.79Z"/>
            <path class="cls-3" d="M169.19,181.64c2.26.61,4.39,1.16,6.5,1.77a1.55,1.55,0,0,1,1.19,2c-.53,2.17-1.16,4.32-1.78,6.59l-3-.74.69-3.12-12.61,6.63L158.7,192l12.28-6.5-2.65-.87Z"/>
            <path class="cls-3" d="M172.78,206.72l-2.17-2.25,2-2.13H171c-3.13,0-6.26,0-9.39,0-.86,0-1.18-.28-1.11-1.1a4.88,4.88,0,0,0,0-1.08c-.08-.85.3-1.09,1.13-1.08,3.53,0,7.06,0,10.93,0l-1.94-2.1,2.23-1.94c1.53,1.47,3.26,3.07,4.9,4.75a1.4,1.4,0,0,1-.18,2.06C176,203.49,174.43,205.07,172.78,206.72Z"/>
          </g>
        </g>
        <text class="cls-6" transform="translate(91.74 274.51)">Load balancer</text>
      </g>
      <g>
        <path class="cls-7" d="M803.69,393.91H49.28A18.94,18.94,0,0,1,30.36,375V25.8H803.69a18.94,18.94,0,0,1,18.92,18.91V375A18.94,18.94,0,0,1,803.69,393.91ZM32.42,27.85V375a16.87,16.87,0,0,0,16.86,16.86H803.69A16.87,16.87,0,0,0,820.55,375V44.71a16.88,16.88,0,0,0-16.86-16.86Z"/>
        <g>
          <rect class="cls-8" x="31.39" y="26.83" width="37.51" height="37.51"/>
          <g>
            <g>
              <g class="cls-9">
                <path class="cls-10" d="M43.41,36.18l-4.89,9a.5.5,0,0,0,0,.48h0l.32.53.12-.39h.3v.08l.23.12,7.26-.12,2.29,0,.78-.21,5-9.21-.14-.16.14-.25.42,0-.32-.53h0a.36.36,0,0,0-.33-.16l-10.18.27A1.31,1.31,0,0,0,43.41,36.18Zm-1.52,4.41,2.28-4,.3-.16,7.67-.31L54.22,36,49.4,44.86a.28.28,0,0,1-.22.15l-9.82.26Z"/>
                <path class="cls-11" d="M43.87,35.71l.49.81-.19.1-2.28,4-2.53,4.68h.18c-.08.14-.65.75-.74.9l-.26-.43-.06-.1h0a.5.5,0,0,1,0-.48l4.89-9A1.38,1.38,0,0,1,43.87,35.71Z"/>
                <path class="cls-12" d="M43.74,36.73l-4.88,9c-.2.36-.07.64.28.63l10.18-.26a1.34,1.34,0,0,0,1-.66l4.89-9c.19-.36.06-.64-.29-.63l-10.18.27A1.33,1.33,0,0,0,43.74,36.73Zm.58,0a.26.26,0,0,1,.22-.15l10-.27c.08,0,.11.06.07.15l-4.87,8.95a.32.32,0,0,1-.23.15l-10,.26c-.08,0-.11-.06-.06-.14Z"/>
                <path class="cls-13" d="M43.74,36.73l-4.88,9c-.2.36-.07.64.28.63l10.18-.26a1.34,1.34,0,0,0,1-.66l4.89-9c.19-.36.06-.64-.29-.63l-10.18.27A1.33,1.33,0,0,0,43.74,36.73Zm.58,0a.26.26,0,0,1,.22-.15l10-.27c.08,0,.11.06.07.15l-4.87,8.95a.32.32,0,0,1-.23.15l-10,.26c-.08,0-.11-.06-.06-.14Z"/>
                <path class="cls-14" d="M49.18,45a.28.28,0,0,0,.22-.15l4.65-8.54h.49c.08,0,.11.06.07.15l-4.87,8.95a.32.32,0,0,1-.23.15l-10,.26c-.08,0-.11-.06-.06-.14l.22-.42Z"/>
                <path class="cls-15" d="M39.45,45.68c-.05.08,0,.14.06.14l10-.26a.32.32,0,0,0,.23-.15l4.87-8.95c0-.09,0-.15-.07-.15l-10,.27a.26.26,0,0,0-.22.15Z"/>
              </g>
              <g class="cls-9">
                <path class="cls-16" d="M61.82,45l-5.3-8.69a.36.36,0,0,0-.31-.2h0l-.61,0,.18.38-.13.25-.21,0-5,9.21.25.77,1.2,2,3.84,6.16L56,55s0,0,.07,0l.15.25-.26.31h.62a.48.48,0,0,0,.39-.3l4.88-9A1.32,1.32,0,0,0,61.82,45Zm-5.45,9.53-5.11-8.39a.29.29,0,0,1,0-.27L56.08,37l1,1.84,3.9,6.6,0,.35-2.09,4.06Z"/>
                <path class="cls-11" d="M62,45.55l-1,0,0,.23-2.09,4.06-2.56,4.67-.09-.15c-.08.14-.29.95-.37,1.1h.62a.48.48,0,0,0,.39-.3l4.88-9A1.37,1.37,0,0,0,62,45.55Z"/>
                <path class="cls-17" d="M61.18,45l-5.3-8.69c-.18-.3-.49-.26-.68.1l-4.89,9a1.33,1.33,0,0,0,0,1.18l5.3,8.7c.19.3.49.25.69-.11l4.88-9A1.32,1.32,0,0,0,61.18,45ZM56,54.68c0,.08-.12.09-.16,0l-5.2-8.54a.29.29,0,0,1,0-.27l4.87-9c0-.08.12-.09.16,0l5.21,8.54a.29.29,0,0,1,0,.27Z"/>
                <path class="cls-18" d="M61.18,45l-5.3-8.69c-.18-.3-.49-.26-.68.1l-4.89,9a1.33,1.33,0,0,0,0,1.18l5.3,8.7c.19.3.49.25.69-.11l4.88-9A1.32,1.32,0,0,0,61.18,45ZM56,54.68c0,.08-.12.09-.16,0l-5.2-8.54a.29.29,0,0,1,0-.27l4.87-9c0-.08.12-.09.16,0l5.21,8.54a.29.29,0,0,1,0,.27Z"/>
                <path class="cls-14" d="M51.26,46.14a.29.29,0,0,1,0-.27l4.65-8.53-.26-.43c0-.06-.11,0-.16,0l-4.87,9a.29.29,0,0,0,0,.27l5.2,8.54c0,.07.11.06.16,0l.22-.42Z"/>
                <path class="cls-15" d="M56,54.68c0,.08-.12.09-.16,0l-5.2-8.54a.29.29,0,0,1,0-.27l4.87-9c0-.08.12-.09.16,0l5.21,8.54a.29.29,0,0,1,0,.27Z"/>
              </g>
              <g>
                <g>
                  <polygon class="cls-19" points="49.83 46.3 52.62 46.23 51.28 48.68 48.49 48.75 47.03 46.37 48.37 43.91 49.83 46.3"/>
                  <polygon class="cls-20" points="48.49 48.75 51.28 48.68 52.62 46.23 49.83 46.3 48.49 48.75"/>
                  <polygon class="cls-21" points="47.03 46.37 48.49 48.75 49.83 46.3 48.37 43.91 47.03 46.37"/>
                  <polygon class="cls-20" points="49.83 46.3 52.62 46.23 51.16 43.84 48.37 43.91 49.83 46.3"/>
                  <polygon class="cls-3" points="49.83 46.3 52.5 46.23 52.56 46.33 49.77 46.4 48.31 44.02 48.43 44.02 49.83 46.3"/>
                </g>
                <g>
                  <polygon class="cls-19" points="46.21 46.37 49 46.3 47.66 48.75 44.87 48.82 43.42 46.44 44.75 43.98 46.21 46.37"/>
                  <polygon class="cls-19" points="44.87 48.82 47.66 48.75 49 46.3 46.21 46.37 44.87 48.82"/>
                  <polygon class="cls-21" points="43.42 46.44 44.87 48.82 46.21 46.37 44.75 43.98 43.42 46.44"/>
                  <polygon class="cls-19" points="46.21 46.37 49 46.3 47.54 43.91 44.75 43.98 46.21 46.37"/>
                  <polygon class="cls-3" points="46.21 46.37 48.88 46.3 48.94 46.4 46.15 46.47 44.69 44.09 44.81 44.09 46.21 46.37"/>
                </g>
                <g>
                  <polygon class="cls-19" points="42.59 46.44 45.38 46.37 44.05 48.82 41.26 48.89 39.8 46.51 41.13 44.06 42.59 46.44"/>
                  <polygon class="cls-19" points="41.26 48.89 44.05 48.82 45.38 46.37 42.59 46.44 41.26 48.89"/>
                  <polygon class="cls-22" points="39.8 46.51 41.26 48.89 42.59 46.44 41.13 44.06 39.8 46.51"/>
                  <polygon class="cls-19" points="42.59 46.44 45.38 46.37 43.93 43.99 41.13 44.06 42.59 46.44"/>
                  <polygon class="cls-3" points="42.59 46.44 45.26 46.37 45.33 46.48 42.53 46.55 41.08 44.16 41.13 44.06 42.59 46.44"/>
                </g>
                <g>
                  <polygon class="cls-19" points="51.67 49.48 54.46 49.41 53.13 51.86 50.34 51.93 48.88 49.55 50.21 47.1 51.67 49.48"/>
                  <polygon class="cls-20" points="50.34 51.93 53.13 51.86 54.46 49.41 51.67 49.48 50.34 51.93"/>
                  <polygon class="cls-21" points="48.88 49.55 50.34 51.93 51.67 49.48 50.21 47.1 48.88 49.55"/>
                  <polygon class="cls-19" points="51.67 49.48 54.46 49.41 53.01 47.02 50.21 47.1 51.67 49.48"/>
                  <polygon class="cls-3" points="51.67 49.48 54.34 49.41 54.4 49.52 51.61 49.59 50.16 47.2 50.28 47.2 51.67 49.48"/>
                </g>
                <g>
                  <polygon class="cls-19" points="48.05 49.55 50.84 49.48 49.51 51.93 46.72 52 45.26 49.62 46.6 47.17 48.05 49.55"/>
                  <polygon class="cls-20" points="46.72 52 49.51 51.93 50.84 49.48 48.05 49.55 46.72 52"/>
                  <polygon class="cls-21" points="45.26 49.62 46.72 52 48.05 49.55 46.6 47.17 45.26 49.62"/>
                  <polygon class="cls-19" points="48.05 49.55 50.84 49.48 49.39 47.1 46.6 47.17 48.05 49.55"/>
                  <polygon class="cls-3" points="48.05 49.55 50.72 49.48 50.79 49.59 47.99 49.66 46.54 47.27 46.66 47.27 48.05 49.55"/>
                </g>
                <g>
                  <polygon class="cls-19" points="44.44 49.62 47.23 49.55 45.89 52.01 43.1 52.08 41.64 49.69 42.98 47.24 44.44 49.62"/>
                  <polygon class="cls-19" points="43.1 52.08 45.89 52.01 47.23 49.55 44.44 49.62 43.1 52.08"/>
                  <polygon class="cls-22" points="41.64 49.69 43.1 52.08 44.44 49.62 42.98 47.24 41.64 49.69"/>
                  <polygon class="cls-19" points="44.44 49.62 47.23 49.55 45.77 47.17 42.98 47.24 44.44 49.62"/>
                  <polygon class="cls-3" points="44.44 49.62 47.11 49.56 47.17 49.66 44.38 49.73 42.92 47.35 42.98 47.24 44.44 49.62"/>
                </g>
                <g>
                  <polygon class="cls-19" points="53.52 52.66 56.31 52.59 54.97 55.05 52.18 55.12 50.72 52.73 52.06 50.28 53.52 52.66"/>
                  <polygon class="cls-20" points="52.18 55.12 54.97 55.05 56.31 52.59 53.52 52.66 52.18 55.12"/>
                  <polygon class="cls-21" points="50.72 52.73 52.18 55.12 53.52 52.66 52.06 50.28 50.72 52.73"/>
                  <polygon class="cls-19" points="53.52 52.66 56.31 52.59 54.85 50.21 52.06 50.28 53.52 52.66"/>
                  <polygon class="cls-3" points="53.52 52.66 56.31 52.59 56.25 52.7 53.46 52.77 52 50.38 52.12 50.38 53.52 52.66"/>
                </g>
                <g>
                  <polygon class="cls-19" points="49.9 52.73 52.69 52.66 51.35 55.12 48.56 55.19 47.11 52.8 48.44 50.35 49.9 52.73"/>
                  <polygon class="cls-20" points="48.56 55.19 51.35 55.12 52.69 52.66 49.9 52.73 48.56 55.19"/>
                  <polygon class="cls-21" points="47.11 52.8 48.56 55.19 49.9 52.73 48.44 50.35 47.11 52.8"/>
                  <polygon class="cls-19" points="49.9 52.73 52.69 52.66 51.23 50.28 48.44 50.35 49.9 52.73"/>
                  <polygon class="cls-3" points="49.9 52.73 52.69 52.66 52.63 52.77 49.84 52.84 48.38 50.46 48.5 50.45 49.9 52.73"/>
                </g>
                <g>
                  <polygon class="cls-19" points="46.28 52.81 49.07 52.74 47.74 55.19 44.95 55.26 43.49 52.88 44.82 50.42 46.28 52.81"/>
                  <polygon class="cls-20" points="44.95 55.26 47.74 55.19 49.07 52.74 46.28 52.81 44.95 55.26"/>
                  <polygon class="cls-22" points="43.49 52.88 44.95 55.26 46.28 52.81 44.82 50.42 43.49 52.88"/>
                  <polygon class="cls-19" points="46.28 52.81 49.07 52.74 47.62 50.35 44.82 50.42 46.28 52.81"/>
                  <polygon class="cls-3" points="46.28 52.81 49.07 52.74 49.02 52.84 46.22 52.91 44.77 50.53 44.82 50.42 46.28 52.81"/>
                </g>
                <g>
                  <polygon class="cls-19" points="51.6 43.04 54.39 42.97 53.05 45.42 50.26 45.49 48.8 43.11 50.14 40.66 51.6 43.04"/>
                  <polygon class="cls-19" points="50.26 45.49 53.05 45.42 54.39 42.97 51.6 43.04 50.26 45.49"/>
                  <polygon class="cls-21" points="48.8 43.11 50.26 45.49 51.6 43.04 50.14 40.66 48.8 43.11"/>
                  <polygon class="cls-20" points="51.6 43.04 54.39 42.97 52.93 40.59 50.14 40.66 51.6 43.04"/>
                  <polygon class="cls-3" points="51.6 43.04 54.27 42.97 54.33 43.08 51.54 43.15 50.08 40.76 50.2 40.76 51.6 43.04"/>
                </g>
                <g>
                  <polygon class="cls-23" points="46.5 52.41 48.4 52.36 47.41 50.73 45.51 50.78 46.5 52.41"/>
                  <polygon class="cls-23" points="50.12 52.34 52.02 52.29 51.03 50.66 49.12 50.71 50.12 52.34"/>
                  <polygon class="cls-23" points="44.65 49.22 46.56 49.18 45.56 47.55 43.66 47.6 44.65 49.22"/>
                  <polygon class="cls-23" points="42.79 46.06 44.7 46.01 43.7 44.38 41.8 44.43 42.79 46.06"/>
                  <polygon class="cls-23" points="53.73 52.26 55.64 52.21 54.64 50.59 52.74 50.64 53.73 52.26"/>
                </g>
                <g>
                  <polygon class="cls-19" points="47.98 43.11 50.77 43.04 49.44 45.49 46.65 45.56 45.19 43.18 46.52 40.73 47.98 43.11"/>
                  <polygon class="cls-19" points="46.65 45.56 49.44 45.49 50.77 43.04 47.98 43.11 46.65 45.56"/>
                  <polygon class="cls-22" points="45.19 43.18 46.65 45.56 47.98 43.11 46.52 40.73 45.19 43.18"/>
                  <polygon class="cls-20" points="47.98 43.11 50.77 43.04 49.32 40.66 46.52 40.73 47.98 43.11"/>
                  <polygon class="cls-3" points="47.98 43.11 50.65 43.05 50.72 43.15 47.92 43.22 46.47 40.84 46.59 40.83 47.98 43.11"/>
                </g>
                <g>
                  <polygon class="cls-19" points="44.36 43.19 47.16 43.12 45.82 45.57 43.03 45.64 41.57 43.26 42.91 40.8 44.36 43.19"/>
                  <polygon class="cls-19" points="43.03 45.64 45.82 45.57 47.16 43.12 44.36 43.19 43.03 45.64"/>
                  <polygon class="cls-22" points="41.57 43.26 43.03 45.64 44.36 43.19 42.91 40.8 41.57 43.26"/>
                  <polygon class="cls-19" points="44.36 43.19 47.16 43.12 45.7 40.73 42.91 40.8 44.36 43.19"/>
                  <polygon class="cls-3" points="44.36 43.19 47.03 43.12 47.1 43.22 44.31 43.29 42.85 40.91 42.91 40.8 44.36 43.19"/>
                </g>
                <g>
                  <polygon class="cls-19" points="53.44 46.22 56.23 46.15 54.9 48.61 52.11 48.68 50.65 46.29 51.98 43.84 53.44 46.22"/>
                  <polygon class="cls-20" points="52.11 48.68 54.9 48.61 56.23 46.15 53.44 46.22 52.11 48.68"/>
                  <polygon class="cls-21" points="50.65 46.29 52.11 48.68 53.44 46.22 51.98 43.84 50.65 46.29"/>
                  <polygon class="cls-20" points="53.44 46.22 56.23 46.15 54.78 43.77 51.98 43.84 53.44 46.22"/>
                  <polygon class="cls-3" points="53.44 46.22 56.11 46.16 56.18 46.26 53.38 46.33 51.93 43.95 52.05 43.94 53.44 46.22"/>
                </g>
                <g>
                  <polygon class="cls-19" points="49.83 46.3 52.62 46.23 51.28 48.68 48.49 48.75 47.03 46.37 48.37 43.91 49.83 46.3"/>
                  <polygon class="cls-20" points="48.49 48.75 51.28 48.68 52.62 46.23 49.83 46.3 48.49 48.75"/>
                  <polygon class="cls-21" points="47.03 46.37 48.49 48.75 49.83 46.3 48.37 43.91 47.03 46.37"/>
                  <polygon class="cls-20" points="49.83 46.3 52.62 46.23 51.16 43.84 48.37 43.91 49.83 46.3"/>
                  <polygon class="cls-3" points="49.83 46.3 52.5 46.23 52.56 46.33 49.77 46.4 48.31 44.02 48.43 44.02 49.83 46.3"/>
                </g>
                <g>
                  <polygon class="cls-19" points="46.21 46.37 49 46.3 47.66 48.75 44.87 48.82 43.42 46.44 44.75 43.98 46.21 46.37"/>
                  <polygon class="cls-19" points="44.87 48.82 47.66 48.75 49 46.3 46.21 46.37 44.87 48.82"/>
                  <polygon class="cls-22" points="43.42 46.44 44.87 48.82 46.21 46.37 44.75 43.98 43.42 46.44"/>
                  <polygon class="cls-19" points="46.21 46.37 49 46.3 47.54 43.91 44.75 43.98 46.21 46.37"/>
                  <polygon class="cls-3" points="46.21 46.37 48.88 46.3 48.94 46.4 46.15 46.47 44.69 44.09 44.75 43.98 46.21 46.37"/>
                </g>
                <g>
                  <polygon class="cls-19" points="55.29 49.41 58.08 49.34 56.74 51.79 53.95 51.86 52.49 49.48 53.83 47.02 55.29 49.41"/>
                  <polygon class="cls-20" points="53.95 51.86 56.74 51.79 58.08 49.34 55.29 49.41 53.95 51.86"/>
                  <polygon class="cls-21" points="52.49 49.48 53.95 51.86 55.29 49.41 53.83 47.02 52.49 49.48"/>
                  <polygon class="cls-19" points="55.29 49.41 58.08 49.34 56.62 46.95 53.83 47.02 55.29 49.41"/>
                  <polygon class="cls-3" points="55.29 49.41 57.96 49.34 58.02 49.44 55.23 49.51 53.77 47.13 53.89 47.13 55.29 49.41"/>
                </g>
                <g>
                  <polygon class="cls-19" points="51.67 49.48 54.46 49.41 53.13 51.86 50.34 51.93 48.88 49.55 50.21 47.1 51.67 49.48"/>
                  <polygon class="cls-20" points="50.34 51.93 53.13 51.86 54.46 49.41 51.67 49.48 50.34 51.93"/>
                  <polygon class="cls-21" points="48.88 49.55 50.34 51.93 51.67 49.48 50.21 47.1 48.88 49.55"/>
                  <polygon class="cls-19" points="51.67 49.48 54.46 49.41 53.01 47.02 50.21 47.1 51.67 49.48"/>
                  <polygon class="cls-3" points="51.67 49.48 54.46 49.41 54.4 49.52 51.61 49.59 50.16 47.2 50.28 47.2 51.67 49.48"/>
                </g>
                <g>
                  <polygon class="cls-19" points="48.05 49.55 50.84 49.48 49.51 51.93 46.72 52 45.26 49.62 46.6 47.17 48.05 49.55"/>
                  <polygon class="cls-20" points="46.72 52 49.51 51.93 50.84 49.48 48.05 49.55 46.72 52"/>
                  <polygon class="cls-22" points="45.26 49.62 46.72 52 48.05 49.55 46.6 47.17 45.26 49.62"/>
                  <polygon class="cls-19" points="48.05 49.55 50.84 49.48 49.39 47.1 46.6 47.17 48.05 49.55"/>
                  <polygon class="cls-3" points="48.05 49.55 50.84 49.48 50.79 49.59 47.99 49.66 46.54 47.27 46.6 47.17 48.05 49.55"/>
                </g>
                <g>
                  <polygon class="cls-23" points="44.56 42.82 46.46 42.77 45.47 41.14 43.56 41.19 44.56 42.82"/>
                  <polygon class="cls-23" points="55.5 49.02 57.4 48.97 56.41 47.35 54.5 47.4 55.5 49.02"/>
                </g>
                <g>
                  <polygon class="cls-19" points="53.37 39.78 56.16 39.71 54.83 42.17 52.03 42.24 50.58 39.85 51.91 37.4 53.37 39.78"/>
                  <polygon class="cls-19" points="52.03 42.24 54.83 42.17 56.16 39.71 53.37 39.78 52.03 42.24"/>
                  <polygon class="cls-21" points="50.58 39.85 52.03 42.24 53.37 39.78 51.91 37.4 50.58 39.85"/>
                  <polygon class="cls-20" points="53.37 39.78 56.16 39.71 54.7 37.33 51.91 37.4 53.37 39.78"/>
                  <polygon class="cls-3" points="53.37 39.78 56.16 39.71 56.1 39.82 53.31 39.89 51.85 37.51 51.91 37.4 53.37 39.78"/>
                </g>
                <g>
                  <polygon class="cls-19" points="49.75 39.86 52.55 39.79 51.21 42.24 48.42 42.31 46.96 39.93 48.3 37.47 49.75 39.86"/>
                  <polygon class="cls-19" points="48.42 42.31 51.21 42.24 52.55 39.79 49.75 39.86 48.42 42.31"/>
                  <polygon class="cls-21" points="46.96 39.93 48.42 42.31 49.75 39.86 48.3 37.47 46.96 39.93"/>
                  <polygon class="cls-20" points="49.75 39.86 52.55 39.79 51.09 37.4 48.3 37.47 49.75 39.86"/>
                  <polygon class="cls-3" points="49.75 39.86 52.55 39.79 52.49 39.89 49.7 39.96 48.24 37.58 48.3 37.47 49.75 39.86"/>
                </g>
                <g>
                  <polygon class="cls-19" points="46.14 39.93 48.93 39.86 47.59 42.31 44.8 42.38 43.34 40 44.68 37.55 46.14 39.93"/>
                  <polygon class="cls-19" points="44.8 42.38 47.59 42.31 48.93 39.86 46.14 39.93 44.8 42.38"/>
                  <polygon class="cls-22" points="43.34 40 44.8 42.38 46.14 39.93 44.68 37.55 43.34 40"/>
                  <polygon class="cls-20" points="46.14 39.93 48.93 39.86 47.47 37.48 44.68 37.55 46.14 39.93"/>
                  <polygon class="cls-3" points="46.14 39.93 48.93 39.86 48.87 39.97 46.08 40.04 44.62 37.65 44.68 37.55 46.14 39.93"/>
                </g>
                <g>
                  <polygon class="cls-19" points="55.21 42.97 58.01 42.9 56.67 45.35 53.88 45.42 52.42 43.04 53.76 40.58 55.21 42.97"/>
                  <polygon class="cls-19" points="53.88 45.42 56.67 45.35 58.01 42.9 55.21 42.97 53.88 45.42"/>
                  <polygon class="cls-21" points="52.42 43.04 53.88 45.42 55.21 42.97 53.76 40.58 52.42 43.04"/>
                  <polygon class="cls-20" points="55.21 42.97 58.01 42.9 56.55 40.51 53.76 40.58 55.21 42.97"/>
                  <polygon class="cls-3" points="55.21 42.97 58.01 42.9 57.95 43 55.16 43.07 53.7 40.69 53.76 40.58 55.21 42.97"/>
                </g>
                <g>
                  <polygon class="cls-19" points="57.06 46.15 59.85 46.08 58.52 48.53 55.72 48.6 54.27 46.22 55.6 43.77 57.06 46.15"/>
                  <polygon class="cls-20" points="55.72 48.6 58.52 48.53 59.85 46.08 57.06 46.15 55.72 48.6"/>
                  <polygon class="cls-21" points="54.27 46.22 55.72 48.6 57.06 46.15 55.6 43.77 54.27 46.22"/>
                  <polygon class="cls-20" points="57.06 46.15 59.85 46.08 58.39 43.7 55.6 43.77 57.06 46.15"/>
                  <polygon class="cls-3" points="57.06 46.15 59.85 46.08 59.79 46.19 57 46.26 55.54 43.87 55.6 43.77 57.06 46.15"/>
                </g>
                <polygon class="cls-23" points="48.25 49.19 50.15 49.14 49.16 47.52 47.26 47.56 48.25 49.19"/>
                <polygon class="cls-23" points="51.87 49.12 53.77 49.07 52.78 47.45 50.87 47.49 51.87 49.12"/>
                <polygon class="cls-23" points="46.41 46.01 48.31 45.96 47.31 44.33 45.41 44.38 46.41 46.01"/>
                <g>
                  <polygon class="cls-19" points="51.58 43.08 54.37 43.01 53.03 45.46 50.24 45.53 48.78 43.15 50.12 40.7 51.58 43.08"/>
                  <polygon class="cls-19" points="50.24 45.53 53.03 45.46 54.37 43.01 51.58 43.08 50.24 45.53"/>
                  <polygon class="cls-21" points="48.78 43.15 50.24 45.53 51.58 43.08 50.12 40.7 48.78 43.15"/>
                  <polygon class="cls-20" points="51.58 43.08 54.37 43.01 52.91 40.63 50.12 40.7 51.58 43.08"/>
                  <polygon class="cls-3" points="51.58 43.08 54.25 43.01 54.31 43.12 51.52 43.19 50.06 40.8 50.18 40.8 51.58 43.08"/>
                </g>
                <g>
                  <polygon class="cls-19" points="47.96 43.15 50.75 43.08 49.42 45.53 46.62 45.6 45.17 43.22 46.5 40.77 47.96 43.15"/>
                  <polygon class="cls-19" points="46.62 45.6 49.42 45.53 50.75 43.08 47.96 43.15 46.62 45.6"/>
                  <polygon class="cls-22" points="45.17 43.22 46.62 45.6 47.96 43.15 46.5 40.77 45.17 43.22"/>
                  <polygon class="cls-20" points="47.96 43.15 50.75 43.08 49.3 40.7 46.5 40.77 47.96 43.15"/>
                  <polygon class="cls-3" points="47.96 43.15 50.63 43.08 50.69 43.19 47.9 43.26 46.44 40.88 46.5 40.77 47.96 43.15"/>
                </g>
                <g>
                  <polygon class="cls-19" points="53.42 46.26 56.21 46.19 54.88 48.65 52.09 48.72 50.63 46.33 51.96 43.88 53.42 46.26"/>
                  <polygon class="cls-20" points="52.09 48.72 54.88 48.65 56.21 46.19 53.42 46.26 52.09 48.72"/>
                  <polygon class="cls-21" points="50.63 46.33 52.09 48.72 53.42 46.26 51.96 43.88 50.63 46.33"/>
                  <polygon class="cls-20" points="53.42 46.26 56.21 46.19 54.76 43.81 51.96 43.88 53.42 46.26"/>
                  <polygon class="cls-3" points="53.42 46.26 56.21 46.19 56.16 46.3 53.36 46.37 51.91 43.99 52.03 43.98 53.42 46.26"/>
                </g>
                <g>
                  <polygon class="cls-19" points="49.8 46.34 52.6 46.26 51.26 48.72 48.47 48.79 47.01 46.41 48.35 43.95 49.8 46.34"/>
                  <polygon class="cls-20" points="48.47 48.79 51.26 48.72 52.6 46.26 49.8 46.34 48.47 48.79"/>
                  <polygon class="cls-22" points="47.01 46.41 48.47 48.79 49.8 46.34 48.35 43.95 47.01 46.41"/>
                  <polygon class="cls-19" points="49.8 46.34 52.6 46.26 51.14 43.88 48.35 43.95 49.8 46.34"/>
                  <polygon class="cls-3" points="49.8 46.34 52.6 46.26 52.54 46.37 49.75 46.44 48.29 44.06 48.35 43.95 49.8 46.34"/>
                </g>
              </g>
              <g>
                <g>
                  <path class="cls-24" d="M50,46.23l-4.88,9a.48.48,0,0,0-.05.48h0l.33.53.11-.39h.31s0,.08,0,.09L46,56l7.26-.12,2.3,0,.77-.21,5-9.21-.14-.16.14-.25L61.8,46l-.32-.52h0a.35.35,0,0,0-.33-.15L51,45.57A1.33,1.33,0,0,0,50,46.23Zm-1.52,4.4,2.28-4,.3-.16,7.67-.31,2.08-.15L56,54.91a.28.28,0,0,1-.22.15l-9.82.26Z"/>
                  <path class="cls-11" d="M50.44,45.75l.5.81-.2.11-2.28,4-2.53,4.69h.18c-.08.15-.65.76-.73.91l-.27-.43-.06-.1h0a.48.48,0,0,1,.05-.48l4.88-9A1.32,1.32,0,0,1,50.44,45.75Z"/>
                  <path class="cls-25" d="M50.32,46.78l-4.89,9c-.19.36-.07.64.28.63l10.18-.27a1.27,1.27,0,0,0,1-.66l4.89-9c.19-.36.06-.64-.29-.63l-10.18.26A1.31,1.31,0,0,0,50.32,46.78Zm.57,0a.3.3,0,0,1,.23-.15l10-.26c.08,0,.11.06.07.14l-4.87,9a.33.33,0,0,1-.23.16l-10,.26c-.08,0-.11-.06-.06-.14Z"/>
                  <path class="cls-26" d="M50.32,46.78l-4.89,9c-.19.36-.07.64.28.63l10.18-.27a1.27,1.27,0,0,0,1-.66l4.89-9c.19-.36.06-.64-.29-.63l-10.18.26A1.31,1.31,0,0,0,50.32,46.78Zm.57,0a.3.3,0,0,1,.23-.15l10-.26c.08,0,.11.06.07.14l-4.87,9a.33.33,0,0,1-.23.16l-10,.26c-.08,0-.11-.06-.06-.14Z"/>
                  <path class="cls-14" d="M55.75,55.06a.28.28,0,0,0,.22-.15l4.65-8.54h.49c.08,0,.11.06.07.14l-4.87,9a.33.33,0,0,1-.23.16l-10,.26c-.08,0-.11-.06-.06-.14l.22-.42Z"/>
                  <path class="cls-27" d="M46,55.73c-.05.08,0,.14.06.14l10-.26a.33.33,0,0,0,.23-.16l4.87-9c0-.08,0-.14-.07-.14l-10,.26a.3.3,0,0,0-.23.15Z"/>
                </g>
                <g>
                  <path class="cls-28" d="M50,45l-5.3-8.69a.35.35,0,0,0-.31-.2h0l-.61,0,.18.38-.13.25-.21,0-5,9.21.24.77,1.2,2,3.84,6.16.23.12.07,0,.16.26-.27.31h.62a.52.52,0,0,0,.39-.3l4.88-9A1.29,1.29,0,0,0,50,45Zm-5.45,9.53-5.11-8.39a.32.32,0,0,1,0-.27l4.82-8.86,1,1.83,3.9,6.61,0,.34L47.11,49.9Z"/>
                  <path class="cls-11" d="M50,45l-5.3-8.69a.35.35,0,0,0-.31-.2h0l-.61,0,.18.38-.13.25-.21,0-5,9.21.24.77,1.2,2,3.84,6.16.23.12.07,0,.16.26-.27.31h.62a.52.52,0,0,0,.39-.3l4.88-9A1.29,1.29,0,0,0,50,45Zm-5.45,9.53-5.11-8.39a.32.32,0,0,1,0-.27l4.82-8.86,1,1.83,3.9,6.61,0,.34L47.11,49.9Z"/>
                  <path class="cls-29" d="M49.36,45.06l-5.3-8.7c-.18-.3-.49-.25-.68.11l-4.89,9a1.35,1.35,0,0,0,0,1.19l5.3,8.7c.19.29.49.25.69-.11l4.88-9A1.29,1.29,0,0,0,49.36,45.06Zm-5.2,9.65c0,.09-.11.1-.16,0L38.8,46.2a.32.32,0,0,1,0-.27l4.87-9c0-.08.12-.09.16,0L49,45.49a.29.29,0,0,1,0,.27Z"/>
                  <path class="cls-30" d="M49.36,45.06l-5.3-8.7c-.18-.3-.49-.25-.68.11l-4.89,9a1.35,1.35,0,0,0,0,1.19l5.3,8.7c.19.29.49.25.69-.11l4.88-9A1.29,1.29,0,0,0,49.36,45.06Zm-5.2,9.65c0,.09-.11.1-.16,0L38.8,46.2a.32.32,0,0,1,0-.27l4.87-9c0-.08.12-.09.16,0L49,45.49a.29.29,0,0,1,0,.27Z"/>
                  <g>
                    <path class="cls-3" d="M61.2,46.44s.06.07,0,.13l-4.87,9a.32.32,0,0,1-.23.15l-10,.26c-.06,0-.09,0-.08-.08h0l10-.27a.32.32,0,0,0,.23-.15l4.87-9A.14.14,0,0,0,61.2,46.44Z"/>
                    <path class="cls-3" d="M51.3,46.11l10.18-.27a.34.34,0,0,1,.35.19.35.35,0,0,0-.3-.11l-10.18.27a1.3,1.3,0,0,0-1,.66l-4.88,9a.55.55,0,0,0-.07.45c-.1-.11-.1-.3,0-.52l4.89-9A1.32,1.32,0,0,1,51.3,46.11Z"/>
                  </g>
                  <g>
                    <path class="cls-19" d="M43.72,36.92s-.1,0-.13,0l-4.88,9a.34.34,0,0,0,0,.28l5.21,8.54a.07.07,0,0,0,.11,0l0,0L38.8,46.2a.34.34,0,0,1,0-.28l4.88-9A.1.1,0,0,1,43.72,36.92Z"/>
                    <path class="cls-19" d="M49.36,45.06l-5.3-8.7a.33.33,0,0,0-.34-.19.37.37,0,0,1,.25.19l5.31,8.7a1.33,1.33,0,0,1,0,1.18l-4.89,9a.53.53,0,0,1-.34.3c.15,0,.31-.08.43-.3l4.88-9A1.26,1.26,0,0,0,49.36,45.06Z"/>
                  </g>
                  <path class="cls-14" d="M39.44,46.18a.32.32,0,0,1,0-.27l4.65-8.54L43.83,37c0-.07-.11-.06-.16,0l-4.87,9a.32.32,0,0,0,0,.27L44,54.74c0,.07.12.06.16,0l.23-.41Z"/>
                </g>
                <g>
                  <path class="cls-19" d="M61.2,46.44s.06.07,0,.13l-4.87,9a.32.32,0,0,1-.23.15l-10,.26c-.06,0-.09,0-.08-.08h0l10-.27a.32.32,0,0,0,.23-.15l4.87-9A.14.14,0,0,0,61.2,46.44Z"/>
                  <path class="cls-19" d="M51.3,46.11l10.18-.27a.34.34,0,0,1,.35.19.35.35,0,0,0-.3-.11l-10.18.27a1.3,1.3,0,0,0-1,.66l-4.88,9a.55.55,0,0,0-.07.45c-.1-.11-.1-.3,0-.52l4.89-9A1.32,1.32,0,0,1,51.3,46.11Z"/>
                </g>
              </g>
              <g>
                <path class="cls-31" d="M51,45.57l10.18-.26a.34.34,0,0,0,.32-.17h0l.3-.54-.43,0-.14-.24.12-.17-5.49-8.94L55,35.05l-2.29.07-7.26.25-.22.13s0,0,0,.09H45l-.13-.39-.3.55h0a.47.47,0,0,0,.07.48L50,45A1.33,1.33,0,0,0,51,45.57Zm-5.53-9.48,9.81-.25a.32.32,0,0,1,.24.14l5.27,8.6-2.09,0L51,44.62l-.32-.15-2.47-3.84Z"/>
                <path class="cls-11" d="M50.43,45.41l.45-.84-.2-.1-2.47-3.84-2.77-4.54h.17c-.08-.14-.68-.72-.77-.87l-.24.45-.06.1h0a.47.47,0,0,0,.07.48L50,45A1.38,1.38,0,0,0,50.43,45.41Z"/>
                <path class="cls-32" d="M51.28,45l10.17-.25c.36,0,.47-.3.26-.65l-5.34-8.71a1.32,1.32,0,0,0-1-.61L45.17,35c-.35,0-.47.29-.26.64l5.35,8.71A1.29,1.29,0,0,0,51.28,45ZM45.5,35.68c0-.08,0-.15.06-.15l10-.25a.3.3,0,0,1,.23.14l5.33,8.69c.05.08,0,.14-.06.14l-10,.25a.29.29,0,0,1-.23-.13Z"/>
                <path class="cls-33" d="M51.28,45l10.17-.25c.36,0,.47-.3.26-.65l-5.34-8.71a1.32,1.32,0,0,0-1-.61L45.17,35c-.35,0-.47.29-.26.64l5.35,8.71A1.29,1.29,0,0,0,51.28,45ZM45.5,35.68c0-.08,0-.15.06-.15l10-.25a.3.3,0,0,1,.23.14l5.33,8.69c.05.08,0,.14-.06.14l-10,.25a.29.29,0,0,1-.23-.13Z"/>
                <g>
                  <path class="cls-19" d="M45.6,35.45l10-.25a.29.29,0,0,1,.23.14L61.16,44c0,.07,0,.12,0,.14a.14.14,0,0,0,0-.06l-5.33-8.69a.3.3,0,0,0-.23-.14l-10,.25h0A.08.08,0,0,1,45.6,35.45Z"/>
                  <path class="cls-19" d="M45,35.6l5.34,8.72a1.33,1.33,0,0,0,1,.61l10.18-.26a.34.34,0,0,0,.29-.13.33.33,0,0,1-.34.21L51.28,45a1.29,1.29,0,0,1-1-.61l-5.35-8.71a.48.48,0,0,1,0-.52A.51.51,0,0,0,45,35.6Z"/>
                </g>
                <path class="cls-14" d="M55.25,35.84a.32.32,0,0,1,.24.14l5.08,8.29.49,0c.08,0,.11-.06.06-.14l-5.33-8.69a.3.3,0,0,0-.23-.14l-10,.25c-.08,0-.1.07-.06.15l.25.4Z"/>
                <path class="cls-34" d="M45.5,35.68c0-.08,0-.15.06-.15l10-.25a.3.3,0,0,1,.23.14l5.33,8.69c.05.08,0,.14-.06.14l-10,.25a.29.29,0,0,1-.23-.13Z"/>
              </g>
            </g>
            <path class="cls-35" d="M43.83,37c0-.07-.11-.06-.16,0l-4.44,8.17c2-.22,4.68-1.43,6.68,0a6,6,0,0,0,2.82,1.17l.3-.57a.29.29,0,0,0,0-.27Z"/>
            <path class="cls-36" d="M52.41,35.36l-6.85.17c-.08,0-.1.07-.06.15l5.29,8.62,0,0c.87-1.85-1.13-5.27.77-7.63A7.49,7.49,0,0,0,52.41,35.36Z"/>
          </g>
        </g>
        <text class="cls-37" transform="translate(77.71 53.81)">Piiano Vault</text>
      </g>
      <g>
        <polygon class="cls-3" points="244.45 179.53 240.93 174.46 323.99 116.64 377.48 116.64 377.48 122.81 325.92 122.81 244.45 179.53"/>
        <polygon class="cls-3" points="375.97 108.49 375.97 130.96 387.21 119.72 375.97 108.49"/>
      </g>
      <g>
        <polygon class="cls-3" points="377.48 281.58 323.99 281.58 323.19 281.03 240.93 223.76 244.45 218.69 325.92 275.41 377.48 275.41 377.48 281.58"/>
        <polygon class="cls-3" points="375.97 267.26 375.97 289.73 387.21 278.5 375.97 267.26"/>
      </g>
      <g>
        <rect class="cls-38" x="407.62" y="72.12" width="92.68" height="92.68"/>
        <g>
          <path class="cls-3" d="M482.47,138.51h-57a4,4,0,0,1-4-4V102.39a4,4,0,0,1,4-4h57a4,4,0,0,1,4,4v32.15A4,4,0,0,1,482.47,138.51Zm-57-38a1.92,1.92,0,0,0-1.92,1.92v32.15a1.92,1.92,0,0,0,1.92,1.91h57a1.92,1.92,0,0,0,1.92-1.91V102.39a1.92,1.92,0,0,0-1.92-1.92Z"/>
          <path class="cls-3" d="M432.26,133a2.05,2.05,0,0,1-2.06-2V106a2.06,2.06,0,0,1,4.11,0V130.9A2.05,2.05,0,0,1,432.26,133Z"/>
          <path class="cls-3" d="M440.77,133a2.05,2.05,0,0,1-2.06-2V106a2.06,2.06,0,0,1,4.11,0V130.9A2.05,2.05,0,0,1,440.77,133Z"/>
          <path class="cls-3" d="M449.71,133a2.05,2.05,0,0,1-2.06-2V106a2.06,2.06,0,0,1,4.11,0V130.9A2.05,2.05,0,0,1,449.71,133Z"/>
          <path class="cls-3" d="M458.22,133a2.05,2.05,0,0,1-2.06-2V106a2.06,2.06,0,0,1,4.11,0V130.9A2.05,2.05,0,0,1,458.22,133Z"/>
          <path class="cls-3" d="M467,133a2.05,2.05,0,0,1-2.06-2V106a2.06,2.06,0,0,1,4.11,0V130.9A2.05,2.05,0,0,1,467,133Z"/>
          <path class="cls-3" d="M475.46,133a2.05,2.05,0,0,1-2.06-2V106a2.06,2.06,0,0,1,4.11,0V130.9A2.05,2.05,0,0,1,475.46,133Z"/>
        </g>
        <text class="cls-6" transform="translate(356.99 188.84)">Control container</text>
      </g>
      <g>
        <rect class="cls-39" x="407.62" y="230.63" width="92.68" height="92.68"/>
        <g>
          <path class="cls-3" d="M482.47,297h-57a4,4,0,0,1-4-4V260.9a4,4,0,0,1,4-4h57a4,4,0,0,1,4,4v32.15A4,4,0,0,1,482.47,297Zm-57-38a1.92,1.92,0,0,0-1.92,1.92v32.15a1.92,1.92,0,0,0,1.92,1.92h57a1.92,1.92,0,0,0,1.92-1.92V260.9a1.92,1.92,0,0,0-1.92-1.92Z"/>
          <path class="cls-3" d="M432.26,291.47a2.06,2.06,0,0,1-2.06-2.06V264.54a2.06,2.06,0,1,1,4.11,0v24.87A2.05,2.05,0,0,1,432.26,291.47Z"/>
          <path class="cls-3" d="M440.77,291.47a2.06,2.06,0,0,1-2.06-2.06V264.54a2.06,2.06,0,1,1,4.11,0v24.87A2.05,2.05,0,0,1,440.77,291.47Z"/>
          <path class="cls-3" d="M449.71,291.47a2.06,2.06,0,0,1-2.06-2.06V264.54a2.06,2.06,0,1,1,4.11,0v24.87A2.05,2.05,0,0,1,449.71,291.47Z"/>
          <path class="cls-3" d="M458.22,291.47a2.06,2.06,0,0,1-2.06-2.06V264.54a2.06,2.06,0,1,1,4.11,0v24.87A2.05,2.05,0,0,1,458.22,291.47Z"/>
          <path class="cls-3" d="M467,291.47a2.06,2.06,0,0,1-2.06-2.06V264.54a2.06,2.06,0,1,1,4.11,0v24.87A2.05,2.05,0,0,1,467,291.47Z"/>
          <path class="cls-3" d="M475.46,291.47a2.06,2.06,0,0,1-2.06-2.06V264.54a2.06,2.06,0,1,1,4.11,0v24.87A2.05,2.05,0,0,1,475.46,291.47Z"/>
        </g>
        <text class="cls-6" transform="translate(370.94 349.99)">Data container</text>
      </g>
      <path class="cls-3" d="M589.6,281.58H529.51v-6.17H589.6a4.51,4.51,0,0,0,4.51-4.51V127.32a4.51,4.51,0,0,0-4.51-4.51H529.51v-6.17H589.6a10.69,10.69,0,0,1,10.68,10.68V270.9A10.69,10.69,0,0,1,589.6,281.58Z"/>
      <g>
        <rect class="cls-3" x="597.2" y="196.03" width="36.7" height="6.17"/>
        <polygon class="cls-3" points="632.39 187.87 632.39 210.35 643.62 199.11 632.39 187.87"/>
      </g>
    </g>
  </g>
</svg>
