<svg xmlns="http://www.w3.org/2000/svg" xmlns:xlink="http://www.w3.org/1999/xlink" width="806.75" height="544.26" viewBox="0 0 806.75 544.26">
  <defs>
    <style>
      .cls-1 {
        isolation: isolate;
      }

      .cls-2 {
        fill: url(#linear-gradient);
      }

      .cls-3, .cls-7 {
        fill: #fff;
      }

      .cls-4 {
        fill: url(#linear-gradient-2);
      }

      .cls-5 {
        font-size: 28.24px;
        font-family: Montserrat-Medium, Montserrat;
        font-weight: 500;
      }

      .cls-6 {
        fill: url(#linear-gradient-3);
      }

      .cls-7 {
        font-size: 36px;
        font-family: Montserrat-SemiBold, Montserrat;
        font-weight: 600;
      }

      .cls-8 {
        fill: url(#linear-gradient-4);
      }

      .cls-9 {
        font-size: 28px;
        font-family: Montserrat-Bold, Montserrat;
        font-weight: 700;
      }

      .cls-10 {
        opacity: 0.5;
      }

      .cls-11 {
        fill: url(#_ÂÁ_Ï_ÌÌ_È_ËÂÌÚ_31);
      }

      .cls-12, .cls-31 {
        fill: #0f054c;
      }

      .cls-12 {
        opacity: 0.6;
      }

      .cls-13 {
        fill: url(#_ÂÁ_Ï_ÌÌ_È_ËÂÌÚ_31-2);
      }

      .cls-14 {
        fill: url(#_ÂÁ_Ï_ÌÌ_È_ËÂÌÚ_85);
      }

      .cls-15 {
        fill: #251c72;
      }

      .cls-16 {
        fill: #42cee5;
        opacity: 0.4;
      }

      .cls-17 {
        fill: url(#_ÂÁ_Ï_ÌÌ_È_ËÂÌÚ_31-3);
      }

      .cls-18 {
        fill: url(#_ÂÁ_Ï_ÌÌ_È_ËÂÌÚ_31-4);
      }

      .cls-19 {
        fill: url(#_ÂÁ_Ï_ÌÌ_È_ËÂÌÚ_85-2);
      }

      .cls-20 {
        fill: #42e8e0;
      }

      .cls-21 {
        fill: #29d7ff;
      }

      .cls-22 {
        fill: #2fd3c7;
      }

      .cls-23 {
        fill: #14c7f7;
      }

      .cls-24 {
        fill: #18b2a3;
        opacity: 0.7;
      }

      .cls-25 {
        fill: url(#_ÂÁ_Ï_ÌÌ_È_ËÂÌÚ_31-5);
      }

      .cls-26 {
        fill: url(#_ÂÁ_Ï_ÌÌ_È_ËÂÌÚ_31-6);
      }

      .cls-27 {
        fill: url(#_ÂÁ_Ï_ÌÌ_È_ËÂÌÚ_85-3);
      }

      .cls-28, .cls-35 {
        fill: #01d0f7;
      }

      .cls-28 {
        opacity: 0.51;
      }

      .cls-29 {
        fill: url(#_ÂÁ_Ï_ÌÌ_È_ËÂÌÚ_31-7);
      }

      .cls-30 {
        fill: url(#_ÂÁ_Ï_ÌÌ_È_ËÂÌÚ_31-8);
      }

      .cls-31 {
        opacity: 0.75;
      }

      .cls-32 {
        fill: url(#_ÂÁ_Ï_ÌÌ_È_ËÂÌÚ_31-9);
      }

      .cls-33 {
        fill: url(#_ÂÁ_Ï_ÌÌ_È_ËÂÌÚ_31-10);
      }

      .cls-34 {
        fill: url(#_ÂÁ_Ï_ÌÌ_È_ËÂÌÚ_85-4);
      }

      .cls-35 {
        opacity: 0.56;
      }

      .cls-36, .cls-37 {
        mix-blend-mode: screen;
      }

      .cls-36 {
        fill: url(#radial-gradient);
      }

      .cls-37 {
        fill: url(#radial-gradient-2);
      }

      .cls-38 {
        fill: #0b0146;
      }

      .cls-39 {
        fill: url(#linear-gradient-5);
      }
    </style>
    <linearGradient id="linear-gradient" x1="214.01" y1="210.72" x2="214.01" y2="319.93" gradientUnits="userSpaceOnUse">
      <stop offset="0.11" stop-color="#ffa861"/>
      <stop offset="1" stop-color="#ff7442"/>
    </linearGradient>
    <linearGradient id="linear-gradient-2" x1="89.84" y1="210.72" x2="89.84" y2="319.93" xlink:href="#linear-gradient"/>
    <linearGradient id="linear-gradient-3" x1="543.91" y1="387.92" x2="543.91" y2="497.12" gradientUnits="userSpaceOnUse">
      <stop offset="0" stop-color="#00a4fd"/>
      <stop offset="0.27" stop-color="#0092f0"/>
      <stop offset="0.81" stop-color="#0063ce"/>
      <stop offset="0.91" stop-color="#005ac7"/>
    </linearGradient>
    <linearGradient id="linear-gradient-4" x1="544.17" y1="36.57" x2="544.17" y2="145.35" gradientUnits="userSpaceOnUse">
      <stop offset="0" stop-color="#826fff"/>
      <stop offset="1" stop-color="#4c32ab"/>
    </linearGradient>
    <linearGradient id="_ÂÁ_Ï_ÌÌ_È_ËÂÌÚ_31" data-name="¡ÂÁ˚ÏˇÌÌ˚È „‡‰ËÂÌÚ 31" x1="2825.66" y1="142.08" x2="2858.15" y2="142.08" gradientTransform="matrix(-0.88, -0.48, -0.48, 0.88, 3091.44, 1340.27)" gradientUnits="userSpaceOnUse">
      <stop offset="0" stop-color="#bcbeff"/>
      <stop offset="0.17" stop-color="#b6b8fc"/>
      <stop offset="0.4" stop-color="#a4a8f5"/>
      <stop offset="0.66" stop-color="#868dea"/>
      <stop offset="0.96" stop-color="#5e67da"/>
      <stop offset="1" stop-color="#5761d7"/>
    </linearGradient>
    <linearGradient id="_ÂÁ_Ï_ÌÌ_È_ËÂÌÚ_31-2" x1="2816.95" y1="142.79" x2="2855.67" y2="142.79" xlink:href="#_ÂÁ_Ï_ÌÌ_È_ËÂÌÚ_31"/>
    <linearGradient id="_ÂÁ_Ï_ÌÌ_È_ËÂÌÚ_85" data-name="¡ÂÁ˚ÏˇÌÌ˚È „‡‰ËÂÌÚ 85" x1="2811.6" y1="142.79" x2="2881.47" y2="142.79" gradientTransform="matrix(-0.88, -0.48, -0.48, 0.88, 3091.44, 1340.27)" gradientUnits="userSpaceOnUse">
      <stop offset="0" stop-color="#706ec4"/>
      <stop offset="0.02" stop-color="#6d6bc2"/>
      <stop offset="0.25" stop-color="#5651ac"/>
      <stop offset="0.49" stop-color="#463f9d"/>
      <stop offset="0.73" stop-color="#3c3494"/>
      <stop offset="1" stop-color="#393091"/>
    </linearGradient>
    <linearGradient id="_ÂÁ_Ï_ÌÌ_È_ËÂÌÚ_31-3" x1="2783.94" y1="142.08" x2="2816.44" y2="142.08" xlink:href="#_ÂÁ_Ï_ÌÌ_È_ËÂÌÚ_31"/>
    <linearGradient id="_ÂÁ_Ï_ÌÌ_È_ËÂÌÚ_31-4" x1="2778.22" y1="142.79" x2="2816.95" y2="142.79" xlink:href="#_ÂÁ_Ï_ÌÌ_È_ËÂÌÚ_31"/>
    <linearGradient id="_ÂÁ_Ï_ÌÌ_È_ËÂÌÚ_85-2" x1="2772.87" y1="142.79" x2="2842.74" y2="142.79" xlink:href="#_ÂÁ_Ï_ÌÌ_È_ËÂÌÚ_85"/>
    <linearGradient id="_ÂÁ_Ï_ÌÌ_È_ËÂÌÚ_31-5" x1="2784.35" y1="164.28" x2="2816.85" y2="164.28" xlink:href="#_ÂÁ_Ï_ÌÌ_È_ËÂÌÚ_31"/>
    <linearGradient id="_ÂÁ_Ï_ÌÌ_È_ËÂÌÚ_31-6" x1="2775.64" y1="164.99" x2="2814.37" y2="164.99" xlink:href="#_ÂÁ_Ï_ÌÌ_È_ËÂÌÚ_31"/>
    <linearGradient id="_ÂÁ_Ï_ÌÌ_È_ËÂÌÚ_85-3" x1="2770.29" y1="164.99" x2="2840.16" y2="164.99" xlink:href="#_ÂÁ_Ï_ÌÌ_È_ËÂÌÚ_85"/>
    <linearGradient id="_ÂÁ_Ï_ÌÌ_È_ËÂÌÚ_31-7" x1="2868.4" y1="178.42" x2="2842.47" y2="166.82" xlink:href="#_ÂÁ_Ï_ÌÌ_È_ËÂÌÚ_31"/>
    <linearGradient id="_ÂÁ_Ï_ÌÌ_È_ËÂÌÚ_31-8" x1="-194.18" y1="171.21" x2="-318.88" y2="163.15" gradientTransform="translate(853.78 122.3) rotate(28.56)" xlink:href="#_ÂÁ_Ï_ÌÌ_È_ËÂÌÚ_31"/>
    <linearGradient id="_ÂÁ_Ï_ÌÌ_È_ËÂÌÚ_31-9" x1="2794.02" y1="128.82" x2="2855.34" y2="128.82" xlink:href="#_ÂÁ_Ï_ÌÌ_È_ËÂÌÚ_31"/>
    <linearGradient id="_ÂÁ_Ï_ÌÌ_È_ËÂÌÚ_31-10" x1="2779.14" y1="127.03" x2="2854.76" y2="127.03" xlink:href="#_ÂÁ_Ï_ÌÌ_È_ËÂÌÚ_31"/>
    <linearGradient id="_ÂÁ_Ï_ÌÌ_È_ËÂÌÚ_85-4" x1="2768.69" y1="127.03" x2="2905.12" y2="127.03" xlink:href="#_ÂÁ_Ï_ÌÌ_È_ËÂÌÚ_85"/>
    <radialGradient id="radial-gradient" cx="496.46" cy="60.62" r="75.52" gradientUnits="userSpaceOnUse">
      <stop offset="0.05" stop-color="#f3a400"/>
      <stop offset="0.41" stop-color="#f3a301" stop-opacity="0.99"/>
      <stop offset="0.54" stop-color="#f3a007" stop-opacity="0.96"/>
      <stop offset="0.63" stop-color="#f29a10" stop-opacity="0.92"/>
      <stop offset="0.7" stop-color="#f2911c" stop-opacity="0.85"/>
      <stop offset="0.77" stop-color="#f1862d" stop-opacity="0.76"/>
      <stop offset="0.82" stop-color="#f17842" stop-opacity="0.64"/>
      <stop offset="0.87" stop-color="#f0685a" stop-opacity="0.51"/>
      <stop offset="0.92" stop-color="#e57" stop-opacity="0.35"/>
      <stop offset="0.96" stop-color="#ed4096" stop-opacity="0.19"/>
      <stop offset="1" stop-color="#ec29b8" stop-opacity="0"/>
    </radialGradient>
    <radialGradient id="radial-gradient-2" cx="522.37" cy="56.22" r="67.05" xlink:href="#radial-gradient"/>
    <linearGradient id="linear-gradient-5" x1="543.96" y1="210.72" x2="543.96" y2="319.93" xlink:href="#linear-gradient-3"/>
  </defs>
  <g class="cls-1">
    <g id="Layer_1" data-name="Layer 1">
      <g>
        <g>
          <rect class="cls-2" x="159.41" y="210.72" width="109.21" height="109.21"/>
          <g>
            <path class="cls-3" d="M240.21,239.12v52.32H187.89V239.12h52.32m1.07-2.42H186.83a1.36,1.36,0,0,0-1.36,1.35V292.5a1.36,1.36,0,0,0,1.36,1.36h54.45a1.36,1.36,0,0,0,1.35-1.36V238.05a1.36,1.36,0,0,0-1.35-1.35Z"/>
            <path class="cls-3" d="M229.47,249.86v30.83H198.64V249.86h30.83m1.06-2.41H197.58a1.35,1.35,0,0,0-1.36,1.35v32.95a1.36,1.36,0,0,0,1.36,1.36h32.95a1.35,1.35,0,0,0,1.35-1.36V248.8a1.34,1.34,0,0,0-1.35-1.35Z"/>
            <rect class="cls-3" x="188.04" y="226.63" width="2.42" height="10.07"/>
            <rect class="cls-3" x="198.19" y="226.63" width="2.42" height="10.07"/>
            <rect class="cls-3" x="207.77" y="226.63" width="2.42" height="10.07"/>
            <rect class="cls-3" x="217.92" y="226.63" width="2.42" height="10.07"/>
            <rect class="cls-3" x="227.38" y="226.63" width="2.42" height="10.07"/>
            <rect class="cls-3" x="237.53" y="226.63" width="2.42" height="10.07"/>
            <rect class="cls-3" x="188.04" y="293.86" width="2.42" height="10.06"/>
            <rect class="cls-3" x="198.19" y="293.86" width="2.42" height="10.06"/>
            <rect class="cls-3" x="207.77" y="293.86" width="2.42" height="10.06"/>
            <rect class="cls-3" x="217.92" y="293.86" width="2.42" height="10.06"/>
            <rect class="cls-3" x="227.38" y="293.86" width="2.42" height="10.06"/>
            <rect class="cls-3" x="237.53" y="293.86" width="2.42" height="10.06"/>
            <rect class="cls-3" x="242.3" y="288.77" width="10.06" height="2.42"/>
            <rect class="cls-3" x="242.3" y="278.61" width="10.06" height="2.42"/>
            <rect class="cls-3" x="242.3" y="269.04" width="10.06" height="2.42"/>
            <rect class="cls-3" x="242.3" y="258.89" width="10.06" height="2.42"/>
            <rect class="cls-3" x="242.3" y="249.43" width="10.06" height="2.42"/>
            <rect class="cls-3" x="242.3" y="239.28" width="10.06" height="2.42"/>
            <rect class="cls-3" x="175.41" y="288.77" width="10.06" height="2.42"/>
            <rect class="cls-3" x="175.41" y="278.61" width="10.06" height="2.42"/>
            <rect class="cls-3" x="175.41" y="269.04" width="10.06" height="2.42"/>
            <rect class="cls-3" x="175.41" y="258.89" width="10.06" height="2.42"/>
            <rect class="cls-3" x="175.41" y="249.43" width="10.06" height="2.42"/>
            <rect class="cls-3" x="175.41" y="239.28" width="10.06" height="2.42"/>
          </g>
        </g>
        <circle class="cls-4" cx="89.84" cy="265.33" r="54.6"/>
        <path class="cls-3" d="M89.42,263.45c-.83,1.34-1.56,2.52-2.3,3.7-2.65,4.28-5.31,8.54-8,12.82-2.42,3.9-4.81,7.8-7.21,11.71a.92.92,0,0,1-.87.57c-3.6,0-7.2,0-10.8,0-.13,0-.26,0-.51-.06l1.69-2.78q4.2-6.79,8.41-13.6c2.21-3.56,4.44-7.1,6.65-10.66q3.93-6.31,7.81-12.66a1,1,0,0,0,.07-.83c-.83-2.06-1.71-4.1-2.55-6.15a.79.79,0,0,0-.88-.58c-2.63,0-5.26,0-8,0V235.5h.72c4.75,0,9.5,0,14.25,0,.58,0,.79.21,1,.71,1.18,2.88,2.41,5.74,3.62,8.6q2.14,5.07,4.27,10.15,1.78,4.26,3.58,8.53l5.47,13c.67,1.59,1.35,3.18,2,4.83l8.34-2.89c.68,1.6,1.35,3.17,2,4.74.48,1.14,1,2.29,1.45,3.42.18.4.16.63-.3.79q-8.62,3-17.24,5.94H102Z"/>
        <text class="cls-5" transform="translate(63.38 360.3)">Applications</text>
      </g>
      <g>
        <text class="cls-5" transform="translate(617.16 449.51)">NoSQL</text>
        <g>
          <rect class="cls-6" x="489.31" y="387.92" width="109.21" height="109.21"/>
          <g>
            <path class="cls-3" d="M567.59,421.92h-2.41c-.3,0-.27-.19-.27-.38v-4.32l-.5.37a20.07,20.07,0,0,1-5.23,2.83,42.33,42.33,0,0,1-9.56,2.3,71.39,71.39,0,0,1-17.77,0,44.93,44.93,0,0,1-7.72-1.64,22.8,22.8,0,0,1-7-3.4l-.63-.49v.55c0,4.85,0,9.71,0,14.57a3.36,3.36,0,0,0,1,2.44,12.59,12.59,0,0,0,4,2.69,33,33,0,0,0,7.57,2.33,46.7,46.7,0,0,0,7.35.9c1.78.07,3.56.13,5.34.1,1.61,0,3.22-.18,4.82-.29.58-.05.58-.07.65.48s.17,1.38.25,2.12c-.77.08-1.49.19-2.23.22-1.94.08-3.88.2-5.82.16-2.13,0-4.26-.17-6.39-.37a42.23,42.23,0,0,1-9.87-2.08,20.76,20.76,0,0,1-6.3-3.22l-.28-.19-.13,0V438q0,6.91,0,13.82a2.69,2.69,0,0,0,.48,1.52,7.72,7.72,0,0,0,2.34,2.14,25.29,25.29,0,0,0,7.3,3,44.25,44.25,0,0,0,8.16,1.34c1.82.13,3.65.27,5.48.25,2.22,0,4.43-.21,6.65-.34.27,0,.35,0,.37.31.07.77.17,1.53.26,2.34-1.15.09-2.26.24-3.37.26-2.27,0-4.55.11-6.82,0-2.07-.07-4.15-.27-6.21-.53a41.2,41.2,0,0,1-6.42-1.37,26.51,26.51,0,0,1-5.17-2.05c-.94-.52-1.81-1.14-2.71-1.72l-.32-.2v.5c0,3.7,0,7.4,0,11.1a4.1,4.1,0,0,0,1.63,3.32,19.91,19.91,0,0,0,7.57,3.67,40.18,40.18,0,0,0,7,1.42c1.76.21,3.53.32,5.31.41,1.4.07,2.82.07,4.22,0a57.07,57.07,0,0,0,7.61-.68,42.06,42.06,0,0,0,6.09-1.42,20.33,20.33,0,0,0,5.86-2.72c.72-.53,1.35-1.17,2.07-1.81.6.39,1.3.83,2,1.29,0,0,0,.25,0,.33a9.45,9.45,0,0,1-2.3,2.25,22.76,22.76,0,0,1-6,3,46.21,46.21,0,0,1-9.21,2,64.61,64.61,0,0,1-9,.47,61.78,61.78,0,0,1-9-.77,40.26,40.26,0,0,1-7.89-2,20.54,20.54,0,0,1-5.21-2.72,8.31,8.31,0,0,1-3-3.71,6.24,6.24,0,0,1-.38-2q0-28.16,0-56.32a5.64,5.64,0,0,1,1.42-3.64,14.81,14.81,0,0,1,5.53-3.94,39.27,39.27,0,0,1,11.37-3,70.52,70.52,0,0,1,11.8-.45,55.17,55.17,0,0,1,10.63,1.38,31.17,31.17,0,0,1,7.25,2.58,14.92,14.92,0,0,1,3.83,2.75,6.48,6.48,0,0,1,1.93,3.51,5.84,5.84,0,0,1,.05.73c0,3.07,0,6.15,0,9.23C567.61,421.68,567.6,421.78,567.59,421.92ZM540.7,404.1c-.94,0-1.88,0-2.82,0a55.62,55.62,0,0,0-7.82.83,33.66,33.66,0,0,0-9.39,2.9,10.36,10.36,0,0,0-3.24,2.36,2.86,2.86,0,0,0-.69,3.21,5,5,0,0,0,1.47,1.82,16.87,16.87,0,0,0,5.23,2.77,40.59,40.59,0,0,0,8.14,2,63.14,63.14,0,0,0,7.39.63,57.7,57.7,0,0,0,8.82-.36c2.15-.27,4.28-.66,6.4-1.11a26.35,26.35,0,0,0,6.12-2.09,11.05,11.05,0,0,0,3.82-2.74,2.81,2.81,0,0,0,.33-3.44,4.38,4.38,0,0,0-.67-.87,12.88,12.88,0,0,0-4.36-2.76,38.91,38.91,0,0,0-9.77-2.57A54.8,54.8,0,0,0,540.7,404.1Z"/>
            <text class="cls-7" transform="translate(550.08 460.85) scale(0.71 1)">DB</text>
          </g>
        </g>
      </g>
      <g>
        <rect class="cls-8" x="489.77" y="36.57" width="108.78" height="108.78"/>
        <text class="cls-9" transform="translate(617.41 100.84)">Vault</text>
        <g>
          <g>
            <g class="cls-10">
              <path class="cls-11" d="M517.85,90.64,498.77,125.7a1.9,1.9,0,0,0-.17,1.9h0l1.26,2.07.46-1.52,1.18,0c0,.17,0,.31,0,.33l.89.48,28.34-.47,9-.2,3-.84,19.61-35.95-.51-.65.52-1,1.65-.21-1.25-2h0a1.37,1.37,0,0,0-1.3-.6l-39.76,1A5.16,5.16,0,0,0,517.85,90.64Zm-5.92,17.21,8.89-15.48,1.18-.64,30-1.19,8.14-.6-18.84,34.6a1.16,1.16,0,0,1-.88.59l-38.34,1Z"/>
              <path class="cls-12" d="M519.64,88.78,521.58,92l-.76.41-8.89,15.48L502,126.14l.69,0c-.31.57-2.54,3-2.86,3.55l-1-1.68-.23-.39h0a1.9,1.9,0,0,1,.17-1.9l19.08-35.06A5.57,5.57,0,0,1,519.64,88.78Z"/>
              <path class="cls-13" d="M519.16,92.78l-19.09,35.06c-.75,1.39-.26,2.49,1.12,2.46L541,129.25a5.12,5.12,0,0,0,3.85-2.58l19.09-35.06c.76-1.4.26-2.5-1.12-2.46l-39.75,1A5.18,5.18,0,0,0,519.16,92.78Zm2.24,0a1.18,1.18,0,0,1,.88-.59l39.06-1c.31,0,.42.24.25.56l-19,35a1.18,1.18,0,0,1-.88.59l-39.06,1c-.31,0-.42-.25-.25-.57Z"/>
              <path class="cls-14" d="M519.16,92.78l-19.09,35.06c-.75,1.39-.26,2.49,1.12,2.46L541,129.25a5.12,5.12,0,0,0,3.85-2.58l19.09-35.06c.76-1.4.26-2.5-1.12-2.46l-39.75,1A5.18,5.18,0,0,0,519.16,92.78Zm2.24,0a1.18,1.18,0,0,1,.88-.59l39.06-1c.31,0,.42.24.25.56l-19,35a1.18,1.18,0,0,1-.88.59l-39.06,1c-.31,0-.42-.25-.25-.57Z"/>
              <path class="cls-15" d="M540.37,125.13a1.16,1.16,0,0,0,.88-.59L559.4,91.2l1.94,0c.31,0,.42.24.25.56l-19,35a1.18,1.18,0,0,1-.88.59l-39.06,1c-.31,0-.42-.25-.25-.57l.88-1.62Z"/>
              <path class="cls-16" d="M502.37,127.73c-.17.32-.06.57.25.57l39.06-1a1.18,1.18,0,0,0,.88-.59l19-35c.17-.32.06-.57-.25-.56l-39.06,1a1.18,1.18,0,0,0-.88.59Z"/>
            </g>
            <g class="cls-10">
              <path class="cls-17" d="M589.77,125.1l-20.71-34a1.38,1.38,0,0,0-1.21-.77h0l-2.39.06.72,1.51-.53,1-.82-.09-19.54,36,.94,3,4.71,7.64,15,24,.89.49s.14-.06.27-.18l.62,1-1,1.21,2.43-.06h0a1.92,1.92,0,0,0,1.51-1.17l19.08-35.07A5.16,5.16,0,0,0,589.77,125.1Zm-21.3,37.2-20-32.75a1.17,1.17,0,0,1,0-1.06l18.83-34.6,3.92,7.16,15.26,25.8.1,1.35-8.18,15.86Z"/>
              <path class="cls-12" d="M590.28,127.23l-3.72.1.07.87-8.18,15.86-10,18.24-.36-.59c-.31.57-1.11,3.74-1.43,4.33l2,0h.45a1.92,1.92,0,0,0,1.51-1.17l19.08-35.07A5.28,5.28,0,0,0,590.28,127.23Z"/>
              <path class="cls-18" d="M587.26,125.16l-20.7-33.95c-.72-1.17-1.91-1-2.67.4L544.8,126.67a5.16,5.16,0,0,0-.07,4.64l20.7,34c.72,1.17,1.92,1,2.67-.4l19.09-35.06A5.15,5.15,0,0,0,587.26,125.16ZM567,162.88c-.18.32-.45.36-.61.09L546,129.62a1.17,1.17,0,0,1,0-1.06l19-35c.17-.31.44-.36.6-.09L586,126.86a1.17,1.17,0,0,1,0,1.06Z"/>
              <path class="cls-19" d="M587.26,125.16l-20.7-33.95c-.72-1.17-1.91-1-2.67.4L544.8,126.67a5.16,5.16,0,0,0-.07,4.64l20.7,34c.72,1.17,1.92,1,2.67-.4l19.09-35.06A5.15,5.15,0,0,0,587.26,125.16ZM567,162.88c-.18.32-.45.36-.61.09L546,129.62a1.17,1.17,0,0,1,0-1.06l19-35c.17-.31.44-.36.6-.09L586,126.86a1.17,1.17,0,0,1,0,1.06Z"/>
              <path class="cls-15" d="M548.5,129.55a1.17,1.17,0,0,1,0-1.06l18.14-33.34-1-1.65c-.16-.27-.43-.22-.6.09l-19,35a1.17,1.17,0,0,0,0,1.06L566.34,163c.16.27.43.23.61-.09l.88-1.62Z"/>
              <path class="cls-16" d="M567,162.88c-.18.32-.45.36-.61.09L546,129.62a1.17,1.17,0,0,1,0-1.06l19-35c.17-.31.44-.36.6-.09L586,126.86a1.17,1.17,0,0,1,0,1.06Z"/>
            </g>
            <g>
              <g>
                <polygon class="cls-20" points="542.91 130.15 553.82 129.87 548.6 139.46 537.69 139.73 532 130.42 537.22 120.84 542.91 130.15"/>
                <polygon class="cls-21" points="537.69 139.73 548.6 139.46 553.82 129.87 542.91 130.15 537.69 139.73"/>
                <polygon class="cls-22" points="532 130.42 537.69 139.73 542.91 130.15 537.22 120.84 532 130.42"/>
                <polygon class="cls-21" points="542.91 130.15 553.82 129.87 548.13 120.56 537.22 120.84 542.91 130.15"/>
                <polygon class="cls-3" points="542.91 130.15 553.34 129.88 553.59 130.29 542.68 130.56 536.99 121.25 537.47 121.24 542.91 130.15"/>
              </g>
              <g>
                <polygon class="cls-20" points="528.78 130.43 539.69 130.16 534.47 139.74 523.57 140.01 517.88 130.7 523.09 121.12 528.78 130.43"/>
                <polygon class="cls-20" points="523.57 140.01 534.47 139.74 539.69 130.16 528.78 130.43 523.57 140.01"/>
                <polygon class="cls-22" points="517.88 130.7 523.57 140.01 528.78 130.43 523.09 121.12 517.88 130.7"/>
                <polygon class="cls-20" points="528.78 130.43 539.69 130.16 534 120.85 523.09 121.12 528.78 130.43"/>
                <polygon class="cls-3" points="528.78 130.43 539.22 130.17 539.46 130.57 528.56 130.85 522.87 121.54 523.34 121.53 528.78 130.43"/>
              </g>
              <g>
                <polygon class="cls-20" points="514.65 130.71 525.56 130.44 520.35 140.02 509.44 140.3 503.75 130.99 508.96 121.41 514.65 130.71"/>
                <polygon class="cls-20" points="509.44 140.3 520.35 140.02 525.56 130.44 514.65 130.71 509.44 140.3"/>
                <polygon class="cls-23" points="503.75 130.99 509.44 140.3 514.65 130.71 508.96 121.41 503.75 130.99"/>
                <polygon class="cls-20" points="514.65 130.71 525.56 130.44 519.87 121.13 508.96 121.41 514.65 130.71"/>
                <polygon class="cls-3" points="514.65 130.71 525.09 130.45 525.34 130.85 514.43 131.13 508.74 121.82 508.96 121.41 514.65 130.71"/>
              </g>
              <g>
                <polygon class="cls-20" points="550.12 142.58 561.02 142.31 555.81 151.89 544.9 152.16 539.21 142.85 544.42 133.27 550.12 142.58"/>
                <polygon class="cls-21" points="544.9 152.16 555.81 151.89 561.02 142.31 550.12 142.58 544.9 152.16"/>
                <polygon class="cls-22" points="539.21 142.85 544.9 152.16 550.12 142.58 544.42 133.27 539.21 142.85"/>
                <polygon class="cls-20" points="550.12 142.58 561.02 142.31 555.33 133 544.42 133.27 550.12 142.58"/>
                <polygon class="cls-3" points="550.12 142.58 560.55 142.32 560.8 142.72 549.89 143 544.2 133.69 544.67 133.68 550.12 142.58"/>
              </g>
              <g>
                <polygon class="cls-20" points="535.99 142.86 546.89 142.59 541.68 152.17 530.77 152.45 525.08 143.14 530.3 133.56 535.99 142.86"/>
                <polygon class="cls-21" points="530.77 152.45 541.68 152.17 546.89 142.59 535.99 142.86 530.77 152.45"/>
                <polygon class="cls-22" points="525.08 143.14 530.77 152.45 535.99 142.86 530.3 133.56 525.08 143.14"/>
                <polygon class="cls-20" points="535.99 142.86 546.89 142.59 541.2 133.28 530.3 133.56 535.99 142.86"/>
                <polygon class="cls-3" points="535.99 142.86 546.42 142.6 546.67 143 535.76 143.28 530.07 133.97 530.54 133.96 535.99 142.86"/>
              </g>
              <g>
                <polygon class="cls-20" points="521.86 143.15 532.77 142.87 527.55 152.46 516.64 152.73 510.95 143.42 516.17 133.84 521.86 143.15"/>
                <polygon class="cls-20" points="516.64 152.73 527.55 152.46 532.77 142.87 521.86 143.15 516.64 152.73"/>
                <polygon class="cls-23" points="510.95 143.42 516.64 152.73 521.86 143.15 516.17 133.84 510.95 143.42"/>
                <polygon class="cls-20" points="521.86 143.15 532.77 142.87 527.08 133.56 516.17 133.84 521.86 143.15"/>
                <polygon class="cls-3" points="521.86 143.15 532.29 142.88 532.54 143.29 521.63 143.56 515.94 134.25 516.17 133.84 521.86 143.15"/>
              </g>
              <g>
                <polygon class="cls-20" points="557.32 155.01 568.23 154.74 563.01 164.32 552.11 164.6 546.41 155.29 551.63 145.71 557.32 155.01"/>
                <polygon class="cls-21" points="552.11 164.6 563.01 164.32 568.23 154.74 557.32 155.01 552.11 164.6"/>
                <polygon class="cls-22" points="546.41 155.29 552.11 164.6 557.32 155.01 551.63 145.71 546.41 155.29"/>
                <polygon class="cls-20" points="557.32 155.01 568.23 154.74 562.54 145.43 551.63 145.71 557.32 155.01"/>
                <polygon class="cls-3" points="557.32 155.01 568.23 154.74 568 155.16 557.1 155.43 551.4 146.12 551.88 146.11 557.32 155.01"/>
              </g>
              <g>
                <polygon class="cls-20" points="543.19 155.3 554.1 155.02 548.88 164.6 537.98 164.88 532.29 155.57 537.5 145.99 543.19 155.3"/>
                <polygon class="cls-21" points="537.98 164.88 548.88 164.6 554.1 155.02 543.19 155.3 537.98 164.88"/>
                <polygon class="cls-22" points="532.29 155.57 537.98 164.88 543.19 155.3 537.5 145.99 532.29 155.57"/>
                <polygon class="cls-20" points="543.19 155.3 554.1 155.02 548.41 145.72 537.5 145.99 543.19 155.3"/>
                <polygon class="cls-3" points="543.19 155.3 554.1 155.02 553.87 155.44 542.97 155.71 537.28 146.41 537.75 146.39 543.19 155.3"/>
              </g>
              <g>
                <polygon class="cls-20" points="529.07 155.58 539.97 155.31 534.76 164.89 523.85 165.16 518.16 155.85 523.38 146.27 529.07 155.58"/>
                <polygon class="cls-21" points="523.85 165.16 534.76 164.89 539.97 155.31 529.07 155.58 523.85 165.16"/>
                <polygon class="cls-23" points="518.16 155.85 523.85 165.16 529.07 155.58 523.38 146.27 518.16 155.85"/>
                <polygon class="cls-20" points="529.07 155.58 539.97 155.31 534.28 146 523.38 146.27 529.07 155.58"/>
                <polygon class="cls-3" points="529.07 155.58 539.97 155.31 539.75 155.72 528.84 156 523.15 146.69 523.38 146.27 529.07 155.58"/>
              </g>
              <g>
                <polygon class="cls-20" points="549.83 117.43 560.74 117.16 555.52 126.74 544.62 127.01 538.92 117.7 544.14 108.12 549.83 117.43"/>
                <polygon class="cls-20" points="544.62 127.01 555.52 126.74 560.74 117.16 549.83 117.43 544.62 127.01"/>
                <polygon class="cls-22" points="538.92 117.7 544.62 127.01 549.83 117.43 544.14 108.12 538.92 117.7"/>
                <polygon class="cls-21" points="549.83 117.43 560.74 117.16 555.05 107.85 544.14 108.12 549.83 117.43"/>
                <polygon class="cls-3" points="549.83 117.43 560.26 117.17 560.51 117.57 549.61 117.85 543.91 108.54 544.39 108.53 549.83 117.43"/>
              </g>
              <g>
                <polygon class="cls-24" points="529.92 154.02 537.36 153.83 533.47 147.48 526.03 147.67 529.92 154.02"/>
                <polygon class="cls-24" points="544.04 153.74 551.48 153.55 547.6 147.2 540.16 147.39 544.04 153.74"/>
                <polygon class="cls-24" points="522.71 141.59 530.15 141.4 526.27 135.05 518.83 135.24 522.71 141.59"/>
                <polygon class="cls-24" points="515.44 129.22 522.88 129.03 519 122.68 511.56 122.87 515.44 129.22"/>
                <polygon class="cls-24" points="558.17 153.45 565.61 153.27 561.73 146.92 554.29 147.1 558.17 153.45"/>
              </g>
              <g>
                <polygon class="cls-20" points="535.7 117.71 546.61 117.44 541.39 127.02 530.49 127.3 524.8 117.99 530.01 108.41 535.7 117.71"/>
                <polygon class="cls-20" points="530.49 127.3 541.39 127.02 546.61 117.44 535.7 117.71 530.49 127.3"/>
                <polygon class="cls-23" points="524.8 117.99 530.49 127.3 535.7 117.71 530.01 108.41 524.8 117.99"/>
                <polygon class="cls-21" points="535.7 117.71 546.61 117.44 540.92 108.13 530.01 108.41 535.7 117.71"/>
                <polygon class="cls-3" points="535.7 117.71 546.14 117.45 546.38 117.86 535.48 118.13 529.79 108.82 530.26 108.81 535.7 117.71"/>
              </g>
              <g>
                <polygon class="cls-20" points="521.58 118 532.48 117.72 527.27 127.31 516.36 127.58 510.67 118.27 515.89 108.69 521.58 118"/>
                <polygon class="cls-20" points="516.36 127.58 527.27 127.31 532.48 117.72 521.58 118 516.36 127.58"/>
                <polygon class="cls-23" points="510.67 118.27 516.36 127.58 521.58 118 515.89 108.69 510.67 118.27"/>
                <polygon class="cls-20" points="521.58 118 532.48 117.72 526.79 108.42 515.89 108.69 521.58 118"/>
                <polygon class="cls-3" points="521.58 118 532.01 117.73 532.26 118.14 521.35 118.41 515.66 109.11 515.89 108.69 521.58 118"/>
              </g>
              <g>
                <polygon class="cls-20" points="557.04 129.86 567.94 129.59 562.73 139.17 551.82 139.45 546.13 130.14 551.35 120.56 557.04 129.86"/>
                <polygon class="cls-21" points="551.82 139.45 562.73 139.17 567.94 129.59 557.04 129.86 551.82 139.45"/>
                <polygon class="cls-22" points="546.13 130.14 551.82 139.45 557.04 129.86 551.35 120.56 546.13 130.14"/>
                <polygon class="cls-21" points="557.04 129.86 567.94 129.59 562.25 120.28 551.35 120.56 557.04 129.86"/>
                <polygon class="cls-3" points="557.04 129.86 567.47 129.6 567.72 130 556.81 130.28 551.12 120.97 551.59 120.96 557.04 129.86"/>
              </g>
              <g>
                <polygon class="cls-20" points="542.91 130.15 553.82 129.87 548.6 139.46 537.69 139.73 532 130.42 537.22 120.84 542.91 130.15"/>
                <polygon class="cls-21" points="537.69 139.73 548.6 139.46 553.82 129.87 542.91 130.15 537.69 139.73"/>
                <polygon class="cls-22" points="532 130.42 537.69 139.73 542.91 130.15 537.22 120.84 532 130.42"/>
                <polygon class="cls-21" points="542.91 130.15 553.82 129.87 548.13 120.56 537.22 120.84 542.91 130.15"/>
                <polygon class="cls-3" points="542.91 130.15 553.34 129.88 553.59 130.29 542.68 130.56 536.99 121.25 537.47 121.24 542.91 130.15"/>
              </g>
              <g>
                <polygon class="cls-20" points="528.78 130.43 539.69 130.16 534.47 139.74 523.57 140.01 517.88 130.7 523.09 121.12 528.78 130.43"/>
                <polygon class="cls-20" points="523.57 140.01 534.47 139.74 539.69 130.16 528.78 130.43 523.57 140.01"/>
                <polygon class="cls-23" points="517.88 130.7 523.57 140.01 528.78 130.43 523.09 121.12 517.88 130.7"/>
                <polygon class="cls-20" points="528.78 130.43 539.69 130.16 534 120.85 523.09 121.12 528.78 130.43"/>
                <polygon class="cls-3" points="528.78 130.43 539.22 130.17 539.46 130.57 528.56 130.85 522.87 121.54 523.09 121.12 528.78 130.43"/>
              </g>
              <g>
                <polygon class="cls-20" points="564.24 142.3 575.15 142.02 569.93 151.6 559.03 151.88 553.34 142.57 558.55 132.99 564.24 142.3"/>
                <polygon class="cls-21" points="559.03 151.88 569.93 151.61 575.15 142.02 564.24 142.3 559.03 151.88"/>
                <polygon class="cls-22" points="553.34 142.57 559.03 151.88 564.24 142.3 558.55 132.99 553.34 142.57"/>
                <polygon class="cls-20" points="564.24 142.3 575.15 142.02 569.46 132.72 558.55 132.99 564.24 142.3"/>
                <polygon class="cls-3" points="564.24 142.3 574.68 142.03 574.92 142.44 564.02 142.71 558.33 133.41 558.8 133.39 564.24 142.3"/>
              </g>
              <g>
                <polygon class="cls-20" points="550.12 142.58 561.02 142.31 555.81 151.89 544.9 152.16 539.21 142.85 544.42 133.27 550.12 142.58"/>
                <polygon class="cls-21" points="544.9 152.16 555.81 151.89 561.02 142.31 550.12 142.58 544.9 152.16"/>
                <polygon class="cls-22" points="539.21 142.85 544.9 152.16 550.12 142.58 544.42 133.27 539.21 142.85"/>
                <polygon class="cls-20" points="550.12 142.58 561.02 142.31 555.33 133 544.42 133.27 550.12 142.58"/>
                <polygon class="cls-3" points="550.12 142.58 561.02 142.31 560.8 142.72 549.89 143 544.2 133.69 544.67 133.68 550.12 142.58"/>
              </g>
              <g>
                <polygon class="cls-20" points="535.99 142.86 546.89 142.59 541.68 152.17 530.77 152.45 525.08 143.14 530.3 133.56 535.99 142.86"/>
                <polygon class="cls-21" points="530.77 152.45 541.68 152.17 546.89 142.59 535.99 142.86 530.77 152.45"/>
                <polygon class="cls-23" points="525.08 143.14 530.77 152.45 535.99 142.86 530.3 133.56 525.08 143.14"/>
                <polygon class="cls-20" points="535.99 142.86 546.89 142.59 541.2 133.28 530.3 133.56 535.99 142.86"/>
                <polygon class="cls-3" points="535.99 142.86 546.89 142.59 546.67 143 535.76 143.28 530.07 133.97 530.3 133.56 535.99 142.86"/>
              </g>
              <g>
                <polygon class="cls-24" points="522.33 116.56 529.77 116.37 525.89 110.02 518.45 110.21 522.33 116.56"/>
                <polygon class="cls-24" points="565.06 140.79 572.5 140.61 568.62 134.26 561.18 134.44 565.06 140.79"/>
              </g>
              <g>
                <polygon class="cls-20" points="556.75 104.71 567.66 104.44 562.44 114.02 551.54 114.3 545.85 104.99 551.06 95.41 556.75 104.71"/>
                <polygon class="cls-20" points="551.54 114.3 562.44 114.02 567.66 104.44 556.75 104.71 551.54 114.3"/>
                <polygon class="cls-22" points="545.85 104.99 551.54 114.3 556.75 104.71 551.06 95.41 545.85 104.99"/>
                <polygon class="cls-21" points="556.75 104.71 567.66 104.44 561.97 95.13 551.06 95.41 556.75 104.71"/>
                <polygon class="cls-3" points="556.75 104.71 567.66 104.44 567.43 104.86 556.53 105.13 550.84 95.82 551.06 95.41 556.75 104.71"/>
              </g>
              <g>
                <polygon class="cls-20" points="542.63 105 553.53 104.72 548.32 114.31 537.41 114.58 531.72 105.27 536.93 95.69 542.63 105"/>
                <polygon class="cls-20" points="537.41 114.58 548.32 114.31 553.53 104.72 542.63 105 537.41 114.58"/>
                <polygon class="cls-22" points="531.72 105.27 537.41 114.58 542.63 105 536.93 95.69 531.72 105.27"/>
                <polygon class="cls-21" points="542.63 105 553.53 104.72 547.84 95.42 536.93 95.69 542.63 105"/>
                <polygon class="cls-3" points="542.63 105 553.53 104.72 553.31 105.14 542.4 105.41 536.71 96.11 536.93 95.69 542.63 105"/>
              </g>
              <g>
                <polygon class="cls-20" points="528.5 105.28 539.4 105.01 534.19 114.59 523.28 114.86 517.59 105.55 522.81 95.97 528.5 105.28"/>
                <polygon class="cls-20" points="523.28 114.86 534.19 114.59 539.4 105.01 528.5 105.28 523.28 114.86"/>
                <polygon class="cls-23" points="517.59 105.55 523.28 114.86 528.5 105.28 522.81 95.97 517.59 105.55"/>
                <polygon class="cls-21" points="528.5 105.28 539.4 105.01 533.72 95.7 522.81 95.97 528.5 105.28"/>
                <polygon class="cls-3" points="528.5 105.28 539.4 105.01 539.18 105.42 528.27 105.7 522.58 96.39 522.81 95.97 528.5 105.28"/>
              </g>
              <g>
                <polygon class="cls-20" points="563.96 117.15 574.87 116.87 569.65 126.45 558.74 126.73 553.05 117.42 558.27 107.84 563.96 117.15"/>
                <polygon class="cls-20" points="558.74 126.73 569.65 126.45 574.87 116.87 563.96 117.15 558.74 126.73"/>
                <polygon class="cls-22" points="553.05 117.42 558.74 126.73 563.96 117.15 558.27 107.84 553.05 117.42"/>
                <polygon class="cls-21" points="563.96 117.15 574.87 116.87 569.17 107.56 558.27 107.84 563.96 117.15"/>
                <polygon class="cls-3" points="563.96 117.15 574.87 116.87 574.64 117.29 563.73 117.56 558.04 108.25 558.27 107.84 563.96 117.15"/>
              </g>
              <g>
                <polygon class="cls-20" points="571.16 129.58 582.07 129.31 576.86 138.89 565.95 139.16 560.26 129.85 565.47 120.27 571.16 129.58"/>
                <polygon class="cls-21" points="565.95 139.16 576.86 138.89 582.07 129.31 571.16 129.58 565.95 139.16"/>
                <polygon class="cls-22" points="560.26 129.85 565.95 139.16 571.16 129.58 565.47 120.27 560.26 129.85"/>
                <polygon class="cls-21" points="571.16 129.58 582.07 129.31 576.38 120 565.47 120.27 571.16 129.58"/>
                <polygon class="cls-3" points="571.16 129.58 582.07 129.31 581.85 129.72 570.94 130 565.25 120.69 565.47 120.27 571.16 129.58"/>
              </g>
              <polygon class="cls-24" points="536.75 141.46 544.19 141.27 540.31 134.92 532.87 135.11 536.75 141.46"/>
              <polygon class="cls-24" points="550.88 141.17 558.32 140.99 554.44 134.64 547 134.82 550.88 141.17"/>
              <polygon class="cls-24" points="529.55 129.02 536.99 128.84 533.11 122.49 525.67 122.67 529.55 129.02"/>
              <g>
                <polygon class="cls-20" points="549.75 117.58 560.65 117.31 555.44 126.89 544.53 127.17 538.84 117.86 544.06 108.28 549.75 117.58"/>
                <polygon class="cls-20" points="544.53 127.17 555.44 126.89 560.65 117.31 549.75 117.58 544.53 127.17"/>
                <polygon class="cls-22" points="538.84 117.86 544.53 127.17 549.75 117.58 544.06 108.28 538.84 117.86"/>
                <polygon class="cls-21" points="549.75 117.58 560.65 117.31 554.96 108 544.06 108.28 549.75 117.58"/>
                <polygon class="cls-3" points="549.75 117.58 560.18 117.32 560.43 117.72 549.52 118 543.83 108.69 544.3 108.68 549.75 117.58"/>
              </g>
              <g>
                <polygon class="cls-20" points="535.62 117.87 546.53 117.59 541.31 127.17 530.4 127.45 524.72 118.14 529.93 108.56 535.62 117.87"/>
                <polygon class="cls-20" points="530.4 127.45 541.31 127.17 546.53 117.59 535.62 117.87 530.4 127.45"/>
                <polygon class="cls-23" points="524.72 118.14 530.4 127.45 535.62 117.87 529.93 108.56 524.72 118.14"/>
                <polygon class="cls-21" points="535.62 117.87 546.53 117.59 540.84 108.28 529.93 108.56 535.62 117.87"/>
                <polygon class="cls-3" points="535.62 117.87 546.05 117.6 546.3 118.01 535.39 118.28 529.7 108.97 529.93 108.56 535.62 117.87"/>
              </g>
              <g>
                <polygon class="cls-20" points="556.95 130.02 567.86 129.74 562.64 139.32 551.74 139.6 546.05 130.29 551.26 120.71 556.95 130.02"/>
                <polygon class="cls-21" points="551.74 139.6 562.64 139.32 567.86 129.74 556.95 130.02 551.74 139.6"/>
                <polygon class="cls-22" points="546.05 130.29 551.74 139.6 556.95 130.02 551.26 120.71 546.05 130.29"/>
                <polygon class="cls-21" points="556.95 130.02 567.86 129.74 562.17 120.44 551.26 120.71 556.95 130.02"/>
                <polygon class="cls-3" points="556.95 130.02 567.86 129.74 567.63 130.16 556.73 130.43 551.04 121.13 551.51 121.11 556.95 130.02"/>
              </g>
              <g>
                <polygon class="cls-20" points="542.83 130.3 553.73 130.03 548.52 139.61 537.61 139.88 531.92 130.57 537.14 120.99 542.83 130.3"/>
                <polygon class="cls-21" points="537.61 139.88 548.52 139.61 553.73 130.03 542.83 130.3 537.61 139.88"/>
                <polygon class="cls-23" points="531.92 130.57 537.61 139.88 542.83 130.3 537.14 120.99 531.92 130.57"/>
                <polygon class="cls-20" points="542.83 130.3 553.73 130.03 548.04 120.72 537.14 120.99 542.83 130.3"/>
                <polygon class="cls-3" points="542.83 130.3 553.73 130.03 553.51 130.44 542.6 130.72 536.91 121.41 537.14 120.99 542.83 130.3"/>
              </g>
            </g>
            <g>
              <g>
                <path class="cls-25" d="M543.52,129.89,524.44,165a1.88,1.88,0,0,0-.17,1.9h0l1.27,2.07.46-1.52,1.18,0c0,.17,0,.3,0,.32l.89.49,28.34-.47,9-.2,3-.84L588,130.72l-.52-.65.53-1,1.65-.22-1.25-2h0a1.35,1.35,0,0,0-1.3-.6l-39.76,1A5.17,5.17,0,0,0,543.52,129.89ZM537.6,147.1l8.88-15.48,1.19-.65,30-1.19,8.13-.59-18.83,34.6a1.2,1.2,0,0,1-.88.59l-38.34,1Z"/>
                <path class="cls-12" d="M545.31,128l1.94,3.17-.77.42L537.6,147.1l-9.9,18.29.69,0c-.31.56-2.54,3-2.86,3.55l-1-1.69-.24-.39h0a1.88,1.88,0,0,1,.17-1.9l19.08-35.06A5.3,5.3,0,0,1,545.31,128Z"/>
                <path class="cls-26" d="M544.83,132l-19.09,35.07c-.76,1.39-.26,2.49,1.11,2.45l39.76-1a5.15,5.15,0,0,0,3.86-2.59l19.09-35.06c.75-1.39.26-2.49-1.12-2.46l-39.76,1.05A5.12,5.12,0,0,0,544.83,132Zm2.24,0a1.2,1.2,0,0,1,.88-.59l39-1c.32,0,.43.24.26.56l-19,35a1.19,1.19,0,0,1-.88.59l-39.06,1c-.31,0-.42-.24-.25-.56Z"/>
                <path class="cls-27" d="M544.83,132l-19.09,35.07c-.76,1.39-.26,2.49,1.11,2.45l39.76-1a5.15,5.15,0,0,0,3.86-2.59l19.09-35.06c.75-1.39.26-2.49-1.12-2.46l-39.76,1.05A5.12,5.12,0,0,0,544.83,132Zm2.24,0a1.2,1.2,0,0,1,.88-.59l39-1c.32,0,.43.24.26.56l-19,35a1.19,1.19,0,0,1-.88.59l-39.06,1c-.31,0-.42-.24-.25-.56Z"/>
                <path class="cls-15" d="M566,164.38a1.2,1.2,0,0,0,.88-.59l18.15-33.34,1.93,0c.32,0,.43.24.26.56l-19,35a1.19,1.19,0,0,1-.88.59l-39.06,1c-.31,0-.42-.24-.25-.56l.88-1.62Z"/>
                <path class="cls-28" d="M528,167c-.17.32-.06.57.25.56l39.06-1a1.19,1.19,0,0,0,.88-.59l19-35c.17-.32.06-.57-.26-.56l-39,1a1.2,1.2,0,0,0-.88.59Z"/>
              </g>
              <g>
                <path class="cls-29" d="M543.6,125.25l-20.7-34a1.38,1.38,0,0,0-1.21-.77h0l-2.39.06.71,1.5-.52,1-.82-.08-19.55,36,.95,3,4.7,7.65,15,24,.9.48s.14,0,.27-.17l.61,1-1,1.21,2.42-.06h0a1.91,1.91,0,0,0,1.5-1.18l19.09-35.06A5.13,5.13,0,0,0,543.6,125.25Zm-21.3,37.2-20-32.75a1.17,1.17,0,0,1,0-1.06L521.19,94l3.91,7.16L540.37,127l.1,1.34-8.18,15.87Z"/>
                <path class="cls-12" d="M543.6,125.25l-20.7-34a1.38,1.38,0,0,0-1.21-.77h0l-2.39.06.71,1.5-.52,1-.82-.08-19.55,36,.95,3,4.7,7.65,15,24,.9.48s.14,0,.27-.17l.61,1-1,1.21,2.42-.06h0a1.91,1.91,0,0,0,1.5-1.18l19.09-35.06A5.13,5.13,0,0,0,543.6,125.25Zm-21.3,37.2-20-32.75a1.17,1.17,0,0,1,0-1.06L521.19,94l3.91,7.16L540.37,127l.1,1.34-8.18,15.87Z"/>
                <path class="cls-30" d="M541.1,125.31l-20.71-34c-.71-1.17-1.91-1-2.66.4l-19.09,35.07a5.13,5.13,0,0,0-.07,4.64l20.7,34c.72,1.17,1.91,1,2.67-.4L541,130A5.16,5.16,0,0,0,541.1,125.31ZM520.78,163c-.17.32-.44.36-.61.09l-20.34-33.35a1.2,1.2,0,0,1,0-1.06l19-35c.18-.32.45-.36.61-.09L539.83,127a1.14,1.14,0,0,1,0,1.06Z"/>
                <path class="cls-31" d="M541.1,125.31l-20.71-34c-.71-1.17-1.91-1-2.66.4l-19.09,35.07a5.13,5.13,0,0,0-.07,4.64l20.7,34c.72,1.17,1.91,1,2.67-.4L541,130A5.16,5.16,0,0,0,541.1,125.31ZM520.78,163c-.17.32-.44.36-.61.09l-20.34-33.35a1.2,1.2,0,0,1,0-1.06l19-35c.18-.32.45-.36.61-.09L539.83,127a1.14,1.14,0,0,1,0,1.06Z"/>
                <g>
                  <path class="cls-3" d="M587.34,130.7c.2.06.25.28.11.54l-19,35a1.17,1.17,0,0,1-.88.59l-39.06,1a.28.28,0,0,1-.33-.31l.15,0,39.05-1a1.14,1.14,0,0,0,.88-.59l19-35A.56.56,0,0,0,587.34,130.7Z"/>
                  <path class="cls-3" d="M548.69,129.43l39.76-1.05a1.33,1.33,0,0,1,1.36.72,1.48,1.48,0,0,0-1.18-.43l-39.76,1.05A5.12,5.12,0,0,0,545,132.3l-19.09,35.07a2,2,0,0,0-.25,1.74,1.75,1.75,0,0,1,.07-2L544.83,132A5.16,5.16,0,0,1,548.69,129.43Z"/>
                </g>
                <g>
                  <path class="cls-20" d="M519.06,93.53c-.17-.13-.37-.06-.52.2l-19,35a1.17,1.17,0,0,0,0,1.06l20.33,33.35a.28.28,0,0,0,.45.11.27.27,0,0,1-.1-.11l-20.34-33.35a1.17,1.17,0,0,1,0-1.06l19-35A.56.56,0,0,1,519.06,93.53Z"/>
                  <path class="cls-20" d="M541.11,125.3,520.4,91.35a1.32,1.32,0,0,0-1.34-.76,1.43,1.43,0,0,1,1,.76l20.71,34a5.18,5.18,0,0,1-.07,4.65L521.6,165a2,2,0,0,1-1.33,1.16c.58.09,1.21-.31,1.68-1.16L541,130A5.19,5.19,0,0,0,541.11,125.3Z"/>
                </g>
                <path class="cls-15" d="M502.34,129.7a1.17,1.17,0,0,1,0-1.06L520.5,95.3l-1-1.65c-.16-.27-.43-.23-.61.09l-19,35a1.2,1.2,0,0,0,0,1.06l20.34,33.35c.17.27.44.23.61-.09l.89-1.62Z"/>
              </g>
              <g>
                <path class="cls-20" d="M587.34,130.7c.2.06.25.28.11.54l-19,35a1.17,1.17,0,0,1-.88.59l-39.06,1a.28.28,0,0,1-.33-.31l.15,0,39.05-1a1.14,1.14,0,0,0,.88-.59l19-35A.56.56,0,0,0,587.34,130.7Z"/>
                <path class="cls-20" d="M548.69,129.43l39.76-1.05a1.33,1.33,0,0,1,1.36.72,1.48,1.48,0,0,0-1.18-.43l-39.76,1.05A5.12,5.12,0,0,0,545,132.3l-19.09,35.07a2,2,0,0,0-.25,1.74,1.75,1.75,0,0,1,.07-2L544.83,132A5.16,5.16,0,0,1,548.69,129.43Z"/>
              </g>
            </g>
            <g>
              <path class="cls-32" d="M547.38,127.3l39.76-1a1.34,1.34,0,0,0,1.27-.66h0l1.14-2.1-1.66-.13-.57-.93.48-.68L566.37,86.9l-3.08-.68-9,.26-28.32,1-.86.53s0,.16,0,.32l-1.18,0-.53-1.49L522.27,89h0a1.9,1.9,0,0,0,.27,1.89l20.85,34A5.19,5.19,0,0,0,547.38,127.3Zm-21.61-37,38.35-1a1.17,1.17,0,0,1,.91.54l20.58,33.59-8.16-.18-30,.35-1.22-.59-9.66-15Z"/>
              <path class="cls-12" d="M545.28,126.68l1.77-3.27-.79-.38-9.66-15L525.77,90.27h.69c-.33-.55-2.68-2.83-3-3.4l-.95,1.73-.21.4h0a1.9,1.9,0,0,0,.27,1.89l20.85,34A5.43,5.43,0,0,0,545.28,126.68Z"/>
              <path class="cls-33" d="M548.57,125.1l39.76-1c1.38,0,1.82-1.16,1-2.51l-20.86-34a5.17,5.17,0,0,0-4-2.38l-39.76,1c-1.38,0-1.82,1.16-1,2.51l20.86,34A5.17,5.17,0,0,0,548.57,125.1ZM526,88.67c-.19-.31-.09-.57.22-.58l39.06-1a1.17,1.17,0,0,1,.91.54L587,121.6c.19.31.09.57-.22.58l-39.06,1a1.17,1.17,0,0,1-.91-.54Z"/>
              <path class="cls-34" d="M548.57,125.1l39.76-1c1.38,0,1.82-1.16,1-2.51l-20.86-34a5.17,5.17,0,0,0-4-2.38l-39.76,1c-1.38,0-1.82,1.16-1,2.51l20.86,34A5.17,5.17,0,0,0,548.57,125.1ZM526,88.67c-.19-.31-.09-.57.22-.58l39.06-1a1.17,1.17,0,0,1,.91.54L587,121.6c.19.31.09.57-.22.58l-39.06,1a1.17,1.17,0,0,1-.91-.54Z"/>
              <g>
                <path class="cls-20" d="M526.42,87.79l39.05-1a1.16,1.16,0,0,1,.91.54l20.8,33.94c.16.25.12.47-.07.55a.69.69,0,0,0-.09-.25l-20.8-33.94a1.17,1.17,0,0,0-.91-.54l-39.06,1a.37.37,0,0,0-.15,0A.29.29,0,0,1,526.42,87.79Z"/>
                <path class="cls-20" d="M523.89,88.38l20.86,34a5.15,5.15,0,0,0,4,2.38l39.76-1a1.43,1.43,0,0,0,1.16-.5,1.31,1.31,0,0,1-1.33.8l-39.76,1a5.17,5.17,0,0,1-4-2.38l-20.86-34a1.78,1.78,0,0,1-.18-2A2.06,2.06,0,0,0,523.89,88.38Z"/>
              </g>
              <path class="cls-15" d="M564.12,89.32a1.17,1.17,0,0,1,.91.54l19.83,32.37,1.94,0c.31,0,.41-.27.22-.58l-20.8-33.94a1.17,1.17,0,0,0-.91-.54l-39.06,1c-.31,0-.41.27-.22.58l1,1.57Z"/>
              <path class="cls-35" d="M526,88.67c-.19-.31-.09-.57.22-.58l39.06-1a1.17,1.17,0,0,1,.91.54L587,121.6c.19.31.09.57-.22.58l-39.06,1a1.17,1.17,0,0,1-.91-.54Z"/>
            </g>
          </g>
          <path class="cls-36" d="M519.49,93.65c-.16-.27-.43-.23-.61.09l-17.35,31.89c7.87-.86,18.29-5.59,26.1.07a22.87,22.87,0,0,0,11,4.57l1.2-2.2a1.14,1.14,0,0,0,0-1.06Z"/>
          <path class="cls-37" d="M553,87.42l-26.75.67c-.31,0-.41.27-.22.58l20.65,33.7.08-.15c3.39-7.2-4.43-20.56,3-29.8A28.49,28.49,0,0,0,553,87.42Z"/>
        </g>
        <g>
          <rect class="cls-3" x="528.29" y="56.68" width="9.98" height="12.34"/>
          <path class="cls-3" d="M513.3,64.06v3.1a.68.68,0,0,1-.59.36h-1.66a.66.66,0,0,1-.59-.36V57.68c0-.26.38-.37.59-.37h7.63a3.53,3.53,0,0,1,3.59,3.45v.05a3.48,3.48,0,0,1-3.64,3.25Zm0-2.37h5.35a.94.94,0,0,0,.79-.9c0-.39-.31-1.12-.76-1.12H513.3Z"/>
          <path class="cls-3" d="M545.6,66.31l-.74,1.43a.75.75,0,0,1-.56.27h-1.87c-.32,0-.59-.25-.59-.36a.23.23,0,0,1,0-.13l4.86-9.47a.65.65,0,0,1,.56-.25h2c.42,0,.55.21.56.25l4.88,9.47a.36.36,0,0,1,0,.11.25.25,0,0,1,0,.14.58.58,0,0,1-.53.24h-1.87a.64.64,0,0,1-.56-.27L551,66.31ZM548.31,61c-.18.36-.43.83-.67,1.28s-.49.95-.66,1.31c-.08.13-.14.26-.19.35h3Z"/>
          <path class="cls-3" d="M558.51,61.88V67.6c0,.3-.41.4-.63.4h-1.59a.73.73,0,0,1-.55-.21.37.37,0,0,1-.07-.19V58.2a.34.34,0,0,1,.07-.18.69.69,0,0,1,.55-.21h1.36a.6.6,0,0,1,.51.17l6.23,5.89V58.19a.29.29,0,0,1,.07-.18.66.66,0,0,1,.54-.21h1.61a.62.62,0,0,1,.54.21.24.24,0,0,1,.07.18l0,9.4a.26.26,0,0,1-.07.18.67.67,0,0,1-.56.23h-1.3a.65.65,0,0,1-.52-.17Z"/>
          <path class="cls-3" d="M568.42,62.9c0-1.72.9-3.78,3.87-4.82a8.78,8.78,0,0,1,2.81-.51c3.09,0,6.7,1.85,6.7,5.33a4.93,4.93,0,0,1-.49,2.12c-.76,1.52-2.74,3.2-6.21,3.2C572.15,68.22,568.42,66.15,568.42,62.9Zm2.84,0c0,1.92,2.15,3,3.84,3a4,4,0,0,0,3.52-1.79A2.25,2.25,0,0,0,579,62.9C579,61,576.77,60,575.1,60a4.13,4.13,0,0,0-3.49,1.69A2.6,2.6,0,0,0,571.26,62.9Z"/>
          <path class="cls-38" d="M544.29,58.41a2.88,2.88,0,0,0-1.46-1.71l-11.06-5.6a2.94,2.94,0,0,0-3.95,1.3L522,63.8a2.95,2.95,0,0,0,1.3,4l11,5.6a2.94,2.94,0,0,0,1.32.31,3.33,3.33,0,0,0,.93-.14,3,3,0,0,0,1.71-1.47l5.77-11.4A2.89,2.89,0,0,0,544.29,58.41ZM532,67.55c0,.09-.25.24-.57.24h-1.69c-.32,0-.58-.15-.58-.24V60.83c0-.09.26-.25.58-.25h1.69c.32,0,.57.16.57.25Zm0-7.66a1.19,1.19,0,0,1-.57.09h-1.69a1.25,1.25,0,0,1-.58-.09V57.48a1.12,1.12,0,0,1,.58-.09h1.69c.32,0,.57,0,.57.09Zm5,7.66c0,.09-.25.24-.57.24h-1.69c-.33,0-.58-.15-.58-.24V60.83c0-.09.25-.25.58-.25h1.69c.32,0,.57.16.57.25Zm0-7.66a1.19,1.19,0,0,1-.57.09h-1.69a1.21,1.21,0,0,1-.58-.09V57.48s.25-.09.58-.09h1.69c.32,0,.57,0,.57.09Z"/>
        </g>
      </g>
      <g>
        <text class="cls-5" transform="translate(617.16 277.25)">SQL</text>
        <g>
          <rect class="cls-39" x="489.35" y="210.72" width="109.21" height="109.21"/>
          <g>
            <path class="cls-3" d="M567.63,244.73h-2.4c-.31,0-.28-.19-.28-.38V240l-.5.38a20.44,20.44,0,0,1-5.22,2.82,42.48,42.48,0,0,1-9.56,2.31,71.47,71.47,0,0,1-17.78,0,45.15,45.15,0,0,1-7.72-1.65,22.3,22.3,0,0,1-7-3.4l-.64-.48v.54c0,4.86,0,9.72,0,14.58a3.34,3.34,0,0,0,1,2.43,12.55,12.55,0,0,0,4.05,2.7,33.26,33.26,0,0,0,7.56,2.33,46.68,46.68,0,0,0,7.36.9c1.77.06,3.55.13,5.33.1,1.61,0,3.22-.18,4.83-.3.57,0,.57-.07.64.49s.17,1.38.26,2.11c-.77.08-1.5.19-2.23.22-1.94.08-3.89.2-5.83.17-2.13,0-4.26-.18-6.38-.37a42.31,42.31,0,0,1-9.88-2.08,20.68,20.68,0,0,1-6.3-3.23l-.28-.19h-.13v.44c0,4.6,0,9.21,0,13.81a2.58,2.58,0,0,0,.47,1.52,7.84,7.84,0,0,0,2.34,2.14,24.85,24.85,0,0,0,7.3,3,43.44,43.44,0,0,0,8.16,1.35c1.83.13,3.66.26,5.48.24,2.22,0,4.44-.2,6.65-.33.27,0,.35,0,.38.3.06.77.16,1.54.25,2.35-1.15.09-2.26.23-3.37.26-2.27,0-4.55.11-6.82,0-2.07-.08-4.15-.28-6.21-.54a39.24,39.24,0,0,1-6.42-1.37,25.87,25.87,0,0,1-5.17-2c-.93-.52-1.81-1.15-2.71-1.72l-.32-.2v.5c0,3.7,0,7.4,0,11.1a4.18,4.18,0,0,0,1.63,3.32,20.2,20.2,0,0,0,7.57,3.67,40.18,40.18,0,0,0,7,1.42c1.76.2,3.54.32,5.31.41,1.41.06,2.82.07,4.23,0a55.61,55.61,0,0,0,7.61-.69A41,41,0,0,0,556,298a20.16,20.16,0,0,0,5.85-2.73c.72-.52,1.35-1.17,2.07-1.8.61.39,1.31.82,2,1.29.05,0,0,.24,0,.33a9.46,9.46,0,0,1-2.3,2.25,22.88,22.88,0,0,1-6,2.95,47,47,0,0,1-9.21,2,66,66,0,0,1-9,.47,64.83,64.83,0,0,1-9-.77,41.16,41.16,0,0,1-7.89-2,20.51,20.51,0,0,1-5.2-2.73,8.14,8.14,0,0,1-3-3.71,6.13,6.13,0,0,1-.38-2q0-28.17,0-56.32a5.66,5.66,0,0,1,1.42-3.64,14.66,14.66,0,0,1,5.53-3.94,39.37,39.37,0,0,1,11.37-3,70.52,70.52,0,0,1,11.8-.45,55.27,55.27,0,0,1,10.64,1.38,31.12,31.12,0,0,1,7.24,2.59,14.5,14.5,0,0,1,3.84,2.75,6.43,6.43,0,0,1,1.92,3.51,5.83,5.83,0,0,1,.06.72v9.23C567.66,244.48,567.64,244.58,567.63,244.73ZM540.74,226.9c-.94,0-1.88,0-2.82,0a55.6,55.6,0,0,0-7.82.82,33.51,33.51,0,0,0-9.38,2.91,10.22,10.22,0,0,0-3.24,2.35,2.86,2.86,0,0,0-.69,3.22,5.06,5.06,0,0,0,1.46,1.82,17.3,17.3,0,0,0,5.23,2.77,42.17,42.17,0,0,0,8.14,2,61.21,61.21,0,0,0,7.39.62,56.63,56.63,0,0,0,8.83-.36c2.14-.27,4.27-.65,6.39-1.1a26.5,26.5,0,0,0,6.12-2.09,11.21,11.21,0,0,0,3.83-2.75,2.82,2.82,0,0,0,.32-3.44,4.3,4.3,0,0,0-.67-.87,12.9,12.9,0,0,0-4.35-2.75,39,39,0,0,0-9.78-2.57A54.81,54.81,0,0,0,540.74,226.9Z"/>
            <text class="cls-7" transform="translate(550.79 284.4) scale(0.71 1)">DB</text>
          </g>
        </g>
      </g>
      <g>
        <rect class="cls-38" x="277.18" y="260.9" width="199.2" height="9.81"/>
        <polygon class="cls-38" points="474.9 255.11 474.9 259.73 474.9 270.83 474.9 275.45 485.2 265.28 474.9 255.11"/>
      </g>
      <g>
        <path class="cls-38" d="M404.67,297.29V103.94a15.63,15.63,0,0,1,15.62-15.61h56.1V96.8h-56.1a7.16,7.16,0,0,0-7.14,7.14V297.29Z"/>
        <polygon class="cls-38" points="474.9 82.72 474.9 87.34 474.9 98.44 474.9 103.06 485.2 92.89 474.9 82.72"/>
      </g>
      <g>
        <path class="cls-38" d="M404.67,239.12V432.46a15.64,15.64,0,0,0,15.62,15.62h56.1V439.6h-56.1a7.15,7.15,0,0,1-7.14-7.14V239.12Z"/>
        <polygon class="cls-38" points="474.9 433.55 474.9 438.17 474.9 449.26 474.9 453.88 485.2 443.72 474.9 433.55"/>
      </g>
    </g>
  </g>
</svg>
